<svg width="242" height="272" viewBox="0 0 242 272" fill="none" xmlns="http://www.w3.org/2000/svg">
<g id="click-me-circle" clip-path="url(#clip0_101_124)">
<g id="click-me-type">
<path id="Vector" d="M193.455 139.749C192.969 137.981 192.915 136.35 193.297 134.807C193.679 133.263 194.537 131.909 195.97 130.753C197.403 129.598 199.41 128.64 202.031 127.983C204.706 127.282 206.938 127.133 208.682 127.483C210.475 127.837 211.838 128.598 212.878 129.675C213.913 130.8 214.629 132.194 215.03 133.806C215.327 134.917 215.428 136.01 215.427 137.143C215.426 138.277 215.194 139.242 214.823 140.097C214.403 140.947 213.716 141.478 212.756 141.739C212.201 141.887 211.707 141.893 211.279 141.708C210.852 141.522 210.486 141.195 210.231 140.729C209.928 140.258 209.685 139.646 209.505 138.891C210.869 138.517 211.989 138.123 212.814 137.702C213.64 137.282 214.23 136.742 214.53 136.128C214.831 135.514 214.846 134.776 214.63 133.87C214.369 132.91 213.891 132.179 213.102 131.616C212.313 131.054 211.156 130.756 209.528 130.761C207.95 130.77 205.75 131.119 202.973 131.861C200.449 132.527 198.415 133.235 197.012 134.048C195.56 134.857 194.643 135.763 194.157 136.804C193.72 137.85 193.666 139.028 193.99 140.387C194.211 141.245 194.542 141.964 195.029 142.598C195.516 143.232 196.166 143.683 196.977 144.001C197.836 144.323 198.908 144.466 200.242 144.435C200.265 144.733 200.199 144.924 200.031 145.156C199.867 145.339 199.605 145.513 199.254 145.581C198.65 145.725 197.965 145.665 197.208 145.303C196.446 144.989 195.759 144.387 195.098 143.491C194.401 142.444 193.864 141.263 193.455 139.749Z" fill="#112E3E"/>
<path id="Vector_2" d="M195.47 147.122L195.866 147.108L195.916 147.654C195.995 148.45 196.134 149.103 196.389 149.569C196.644 150.034 197.01 150.362 197.486 150.552C197.963 150.742 198.55 150.793 199.292 150.76L222.771 148.976C223.513 148.943 224.122 148.75 224.535 148.54C224.952 148.281 225.28 147.915 225.47 147.439C225.659 146.963 225.719 146.278 225.641 145.483L225.591 144.936L225.986 144.921L226.553 152.512L199.7 154.541C198.904 154.619 198.251 154.759 197.785 155.014C197.319 155.269 196.991 155.634 196.801 156.11C196.612 156.587 196.551 157.271 196.63 158.067L196.68 158.613L196.284 158.628L195.47 147.122Z" fill="#112E3E"/>
<path id="Vector_3" d="M196.299 159.022L196.691 159.057L196.644 159.595C196.575 160.377 196.666 161.026 196.819 161.532C197.02 162.043 197.333 162.415 197.756 162.65C198.179 162.884 198.758 163.033 199.492 163.098L214 164.075C214.734 164.14 215.383 164.049 215.841 163.892C216.303 163.686 216.675 163.374 216.914 162.902C217.153 162.43 217.306 161.803 217.375 161.02L217.383 160.922L217.775 160.957L217.291 168.159L199.446 166.987C198.663 166.918 198.014 167.009 197.508 167.162C196.997 167.364 196.625 167.676 196.386 168.148C196.147 168.62 195.994 169.247 195.925 170.029L195.878 170.567L195.486 170.533L196.299 159.022ZM221.354 166.249C221.396 165.76 221.582 165.332 221.954 165.02C222.327 164.708 222.882 164.559 223.714 164.632C224.546 164.705 225.169 164.908 225.437 165.227C225.749 165.599 225.862 166.004 225.815 166.542C225.772 167.031 225.591 167.409 225.263 167.775C224.939 168.091 224.335 168.235 223.454 168.158C222.622 168.085 222.048 167.887 221.736 167.514C221.423 167.142 221.311 166.738 221.354 166.249Z" fill="#112E3E"/>
<path id="Vector_4" d="M192.806 180.845C193.258 179.062 194.028 177.601 195.069 176.411C196.11 175.221 197.557 174.461 199.362 174.127C201.166 173.792 203.372 173.937 206.025 174.613C208.726 175.294 210.717 176.208 212.143 177.368C213.521 178.524 214.392 179.832 214.753 181.343C215.118 182.804 215.078 184.377 214.639 186.015C214.344 187.122 213.961 188.124 213.381 189.108C212.851 190.096 212.195 190.827 211.409 191.35C210.673 191.876 209.771 192.044 208.809 191.762C208.231 191.613 207.807 191.378 207.544 191.01C207.28 190.642 207.123 190.185 207.073 189.638C207.022 189.092 207.127 188.46 207.293 187.686C208.691 188.055 209.861 188.207 210.795 188.24C211.729 188.273 212.484 188.093 213.061 187.7C213.638 187.307 213.991 186.648 214.22 185.731C214.448 184.815 214.383 183.873 213.967 182.998C213.55 182.124 212.685 181.309 211.277 180.495C209.865 179.731 207.813 178.959 205.014 178.27C202.459 177.602 200.364 177.32 198.736 177.325C197.108 177.33 195.798 177.658 194.946 178.372C194.046 179.081 193.417 180.061 193.101 181.414C192.877 182.281 192.858 183.068 192.936 183.863C193.067 184.614 193.398 185.333 193.979 186.025C194.559 186.716 195.441 187.336 196.617 187.981C196.498 188.217 196.334 188.4 196.081 188.476C195.828 188.553 195.53 188.576 195.143 188.493C194.515 188.339 193.958 187.945 193.476 187.262C192.989 186.628 192.67 185.762 192.471 184.66C192.312 183.661 192.428 182.34 192.806 180.845Z" fill="#112E3E"/>
<path id="Vector_5" d="M191.611 188.281L191.99 188.462L191.817 188.743C191.459 189.451 191.208 190.069 191.209 190.611C191.162 191.149 191.319 191.607 191.579 192.024C191.887 192.445 192.35 192.782 193.01 193.135L213.78 204.224C214.439 204.577 215.014 204.776 215.556 204.774C216.046 204.817 216.503 204.66 216.929 204.303C217.35 203.995 217.744 203.438 218.102 202.73L218.16 202.637L218.538 202.818L215.121 209.171L200.426 201.327C199.954 201.088 199.486 200.801 199.014 200.562C198.542 200.323 198.074 200.036 197.602 199.797C197.134 199.51 196.662 199.271 196.194 198.984L199.737 208.61C199.98 209.222 200.181 209.733 200.387 210.195C200.593 210.656 200.808 211.02 200.982 211.282C201.205 211.548 201.384 211.761 201.575 211.827C201.998 212.061 202.403 211.949 202.837 211.494C203.272 211.039 203.781 210.295 204.369 209.213L204.747 209.394L200.556 217.257L200.178 217.076C200.478 216.462 200.721 215.941 200.866 215.412C201.011 214.882 200.969 214.238 200.842 213.438C200.666 212.634 200.369 211.524 199.809 210.045L198.176 205.614L186.849 206.591C185.359 206.707 184.208 206.902 183.506 207.037C182.751 207.217 182.24 207.419 181.974 207.642C181.659 207.861 181.437 208.137 181.26 208.466L181.203 208.56L180.824 208.379L181.651 206.825C182.009 206.117 182.407 205.511 182.793 205.052C183.178 204.593 183.559 204.183 183.981 203.875C184.402 203.567 184.868 203.313 185.424 203.164C185.93 203.011 186.579 202.921 187.277 202.834L196.907 202.102L195.673 198.741L191.388 196.443C190.68 196.085 190.061 195.833 189.518 195.835C188.98 195.788 188.523 195.945 188.101 196.253C187.68 196.561 187.286 197.118 186.928 197.825L186.87 197.919L186.492 197.738L191.611 188.281Z" fill="#112E3E"/>
<path id="Vector_6" d="M176.891 214.983L177.11 215.298L176.848 215.472C176.214 215.958 175.731 216.409 175.492 216.881C175.254 217.353 175.162 217.837 175.27 218.29C175.374 218.792 175.624 219.307 176.066 219.888L184.704 231.587C185.146 232.168 185.601 232.603 186.024 232.837C186.447 233.071 186.936 233.114 187.487 233.015C187.989 232.911 188.607 232.62 189.241 232.134L189.347 232.044L189.566 232.359L183.817 236.635L181.521 233.575L181.468 233.62C181.859 234.788 182.013 235.836 181.842 236.659C181.716 237.535 181.358 238.243 180.858 238.889C180.357 239.535 179.768 240.075 179.133 240.561C177.975 241.396 176.749 241.88 175.407 242.008C174.064 242.137 172.635 241.568 171.062 240.395L171.008 240.44C171.577 241.82 171.821 242.975 171.74 243.904C171.658 244.834 171.34 245.644 170.844 246.241C170.344 246.887 169.803 247.431 169.173 247.868C167.327 249.234 165.559 249.72 163.868 249.325C162.177 248.93 160.563 247.655 158.929 245.491L152.891 237.321C152.404 236.687 151.953 236.204 151.481 235.966C151.009 235.727 150.524 235.635 150.022 235.739C149.52 235.843 148.903 236.134 148.268 236.62L148.162 236.709L147.943 236.394L153.742 232.123L162.508 244.031C163.83 245.822 165.061 246.965 166.157 247.406C167.252 247.848 168.35 247.697 169.459 246.858C170.302 246.242 170.811 245.499 171.08 244.684C171.353 243.821 171.336 242.883 171.031 241.871C170.725 240.858 170.179 239.775 169.295 238.613L162.909 229.921C162.422 229.287 161.971 228.804 161.499 228.565C161.027 228.326 160.542 228.235 160.04 228.338C159.538 228.442 158.92 228.733 158.286 229.219L158.18 229.309L157.961 228.994L163.759 224.722L172.526 236.63C173.848 238.422 175.079 239.565 176.174 240.006C177.27 240.447 178.421 240.252 179.579 239.418C180.422 238.802 181.033 238.017 181.257 237.15C181.53 236.287 181.469 235.296 181.119 234.23C180.769 233.164 180.133 231.975 179.164 230.658L173.082 222.435C172.595 221.801 172.144 221.318 171.672 221.08C171.2 220.841 170.715 220.749 170.213 220.853C169.711 220.957 169.094 221.247 168.459 221.734L168.353 221.823L168.134 221.508L176.891 214.983Z" fill="#112E3E"/>
<path id="Vector_7" d="M137.013 237.9C139.901 237.019 142.396 237.239 144.597 238.565C146.798 239.892 148.366 242.247 149.404 245.591C150.518 249.188 150.607 252.104 149.716 254.391C148.776 256.675 146.962 258.24 144.275 259.089C141.791 259.857 139.585 259.712 137.71 258.611C135.785 257.506 134.387 255.461 133.421 252.419L133.156 251.509L145.981 247.509C145.124 244.92 144.268 242.873 143.414 241.369C142.556 239.914 141.61 238.894 140.563 238.458C139.521 237.972 138.338 237.967 137.072 238.348C136.108 238.658 135.282 239.078 134.635 239.712C133.992 240.296 133.532 241.044 133.21 241.903C132.937 242.766 132.851 243.744 133.002 244.842C132.704 244.865 132.414 244.79 132.183 244.622C131.955 244.405 131.777 244.192 131.704 243.89C131.552 243.384 131.607 242.748 131.921 241.987C132.234 241.226 132.792 240.486 133.595 239.768C134.397 239.05 135.543 238.362 137.013 237.9ZM137.124 250.674C137.816 252.903 138.547 254.693 139.227 255.935C139.955 257.182 140.669 258.033 141.516 258.502C142.362 258.97 143.247 258.999 144.211 258.689C145.277 258.339 146.018 257.763 146.483 256.966C146.951 256.12 147.148 255.004 147.032 253.515C146.965 252.031 146.586 250.174 145.996 247.904L137.124 250.674Z" fill="#112E3E"/>
<path id="Vector_8" d="M119.729 252.252L119.758 253.043L109.295 253.16L109.266 252.369L119.729 252.252Z" fill="#112E3E"/>
<path id="Vector_9" d="M89.9699 237.96C91.7502 238.461 93.1623 239.226 94.3486 240.316C95.486 241.401 96.2465 242.848 96.5323 244.647C96.8182 246.447 96.625 248.647 95.8996 251.294C95.1742 253.941 94.2067 255.976 93.0015 257.349C91.7963 258.721 90.4915 259.543 88.985 259.855C87.5274 260.17 85.9574 260.082 84.3195 259.642C83.2113 259.348 82.2139 258.915 81.2293 258.336C80.2447 257.757 79.5134 257.101 78.9906 256.316C78.4678 255.531 78.3451 254.682 78.6267 253.721C78.776 253.143 79.0593 252.724 79.4276 252.461C79.7958 252.197 80.2534 252.04 80.7959 252.039C81.3384 252.037 81.9745 252.093 82.7445 252.308C82.3796 253.656 82.1298 254.817 82.0929 255.8C82.0603 256.733 82.1916 257.484 82.5847 258.061C82.9779 258.637 83.5839 259.036 84.5007 259.264C85.4132 259.541 86.3557 259.476 87.2304 259.06C88.1008 258.693 88.9696 257.783 89.7791 256.425C90.5886 255.067 91.3646 252.966 92.1475 250.226C92.8643 247.677 93.1957 245.587 93.2395 243.964C93.2833 242.341 92.9545 241.031 92.2936 240.135C91.6326 239.239 90.6034 238.607 89.2591 238.193C88.3913 237.969 87.6084 237.901 86.8127 237.979C86.0659 238.061 85.2976 238.388 84.6057 238.968C83.9138 239.548 83.2451 240.425 82.6039 241.552C82.3678 241.433 82.1893 241.22 82.1086 241.016C82.0322 240.762 82.009 240.465 82.1412 240.082C82.2949 239.455 82.7378 238.902 83.3679 238.465C84.0512 237.983 84.9173 237.664 86.0109 237.563C87.1578 237.417 88.4789 237.533 89.9699 237.96Z" fill="#112E3E"/>
<path id="Vector_10" d="M82.5996 235.982L82.4185 236.36L81.9464 236.122C81.2382 235.764 80.6107 235.61 80.0725 235.563C79.53 235.565 79.0767 235.673 78.6999 236.034C78.3273 236.346 77.9376 236.854 77.6371 237.468L67.396 258.649C67.0913 259.312 66.8887 259.935 66.8947 260.429C66.9007 260.922 67.0578 261.379 67.4149 261.805C67.772 262.231 68.2844 262.571 68.9926 262.929L69.4647 263.168L69.2836 263.546L62.425 260.233L74.1641 236.03C74.522 235.322 74.6757 234.695 74.7229 234.157C74.7212 233.615 74.5641 233.157 74.2559 232.736C73.8989 232.31 73.3864 231.97 72.6782 231.612L72.2061 231.373L72.3872 230.995L82.5996 235.982Z" fill="#112E3E"/>
<path id="Vector_11" d="M53.077 248.767C53.4959 249.051 53.7594 249.419 53.8676 249.872C53.9757 250.325 53.7774 250.899 53.3216 251.598C52.8658 252.297 52.3868 252.699 51.9335 252.807C51.4846 252.866 51.0485 252.779 50.6296 252.495C50.2107 252.212 49.9961 251.848 49.888 251.395C49.7798 250.942 49.9781 250.368 50.4382 249.62C50.8941 248.921 51.3731 248.519 51.8709 248.464C52.222 248.397 52.6538 248.533 53.077 248.767ZM71.8661 230.752L71.6403 231.077L71.2214 230.794C70.5707 230.343 69.9518 230.091 69.4179 229.995C68.884 229.899 68.4307 230.007 67.9646 230.262C67.5474 230.521 67.1174 230.927 66.7191 231.532L58.6104 243.585C58.2121 244.191 57.9648 244.761 57.873 245.246C57.7811 245.73 57.885 246.232 58.1931 246.654C58.4481 247.12 58.952 247.558 59.6026 248.01L59.6962 248.067L59.4704 248.392L53.5123 244.37L63.4932 229.524C63.9447 228.874 64.1962 228.255 64.2924 227.722C64.3885 227.188 64.2804 226.735 63.9765 226.265C63.6727 225.794 63.2177 225.36 62.567 224.909L62.1481 224.626L62.3739 224.3L71.8661 230.752Z" fill="#112E3E"/>
<path id="Vector_12" d="M54.7506 216.781C56.0665 218.079 56.9335 219.437 57.4408 220.96C57.8991 222.478 57.8553 224.101 57.2604 225.823C56.6655 227.545 55.4174 229.407 53.5246 231.311C51.5742 233.308 49.7862 234.58 48.0582 235.168C46.3791 235.76 44.7919 235.867 43.3541 235.396C41.912 234.974 40.5531 234.164 39.3754 232.977C38.5591 232.166 37.8938 231.319 37.2904 230.329C36.7359 229.344 36.3728 228.425 36.3076 227.483C36.2423 226.541 36.56 225.731 37.2115 225.049C37.6416 224.643 38.0588 224.384 38.5077 224.325C38.9567 224.266 39.4417 224.358 39.9138 224.596C40.3859 224.835 40.943 225.229 41.4872 225.769C40.5121 226.768 39.7412 227.686 39.2279 228.479C38.7145 229.272 38.499 230.041 38.5411 230.686C38.5789 231.379 38.9677 232.005 39.6458 232.705C40.3283 233.356 41.1789 233.776 42.1086 233.857C43.0872 233.943 44.2512 233.602 45.6049 232.784C47.0075 231.971 48.6617 230.539 50.6653 228.497C52.5049 226.638 53.8337 224.98 54.6518 223.524C55.4656 222.117 55.8261 220.818 55.6759 219.721C55.5257 218.623 54.9798 217.54 53.9806 216.565C53.3428 215.967 52.6922 215.516 51.9797 215.207C51.2672 214.898 50.48 214.878 49.5822 214.996C48.68 215.164 47.7031 215.62 46.558 216.308C46.3794 216.095 46.352 215.846 46.3734 215.602C46.3949 215.357 46.5674 215.077 46.8378 214.805C47.2722 214.35 47.9383 214.064 48.7341 213.986C49.5298 213.908 50.4552 214.038 51.5016 214.475C52.5926 214.965 53.6622 215.7 54.7506 216.781Z" fill="#112E3E"/>
<path id="Vector_13" d="M48.959 211.984L48.595 212.199L48.4207 211.937C47.9873 211.258 47.5855 210.779 47.122 210.443C46.7031 210.16 46.2224 210.019 45.7245 210.074C45.2266 210.129 44.6627 210.375 44.0412 210.715L24.0204 223.102C23.3946 223.491 22.9156 223.892 22.6323 224.311C22.349 224.73 22.2572 225.215 22.3121 225.712C22.367 226.21 22.658 226.827 23.0426 227.501L23.0829 227.603L22.7189 227.818L18.9197 221.669L33.1892 213.015C33.6596 212.711 34.0768 212.452 34.5429 212.197C35.009 211.943 35.4305 211.635 35.8966 211.38C36.3627 211.125 36.8331 210.821 37.2992 210.567L27.1993 208.793C26.5675 208.688 25.9846 208.588 25.4953 208.545C25.006 208.502 24.6103 208.516 24.2635 208.535C23.9167 208.554 23.6635 208.63 23.5038 208.764C23.1356 209.028 23.0034 209.41 23.1476 210.014C23.2918 210.618 23.7124 211.444 24.3605 212.487L23.9965 212.701L19.2857 205.141L19.6496 204.927C19.9938 205.499 20.3956 205.978 20.7569 206.355C21.1673 206.736 21.7329 207.032 22.4986 207.296C23.2643 207.56 24.4215 207.859 25.9254 208.139L30.5882 208.943L35.4384 198.624C36.0522 197.249 36.4891 196.203 36.7003 195.482C36.9115 194.761 37.0076 194.228 36.9441 193.828C36.8763 193.477 36.7596 193.122 36.5896 192.811L36.5493 192.709L36.9132 192.494L37.8652 194.007C38.2987 194.686 38.6386 195.307 38.836 195.867C39.0824 196.43 39.1819 196.981 39.2369 197.479C39.2918 197.977 39.2446 198.515 39.1484 199.048C39.0033 199.578 38.805 200.152 38.5003 200.815L34.2897 209.465L37.7868 210.067L41.9055 207.521C42.5845 207.088 43.0635 206.686 43.4 206.223C43.6833 205.804 43.8241 205.324 43.7245 204.773C43.6739 204.226 43.3786 203.658 42.994 202.984L42.9537 202.882L43.3177 202.667L48.959 211.984Z" fill="#112E3E"/>
<path id="Vector_14" d="M33.1568 185.856L32.7568 185.919L32.7336 185.622C32.6555 184.826 32.4667 184.169 32.2074 183.752C31.9525 183.286 31.5825 183.007 31.1061 182.817C30.6254 182.677 30.0383 182.625 29.2914 182.708L14.8573 184.25C14.1105 184.332 13.5019 184.525 13.0847 184.784C12.6675 185.043 12.3396 185.409 12.1945 185.938C12.0494 186.468 11.9936 187.103 12.0717 187.899L12.0631 187.997L11.6631 188.06L10.907 180.946L14.69 180.539L14.6986 180.441C13.4882 180.187 12.5354 179.808 11.8976 179.209C11.2066 178.656 10.7242 177.973 10.4418 177.258C10.1637 176.494 9.93447 175.735 9.85637 174.94C9.68299 173.544 9.89676 172.232 10.4487 171C10.9964 169.815 12.2162 168.838 14.0592 168.064L14.0678 167.966C12.6042 167.788 11.4557 167.392 10.7158 166.834C9.97582 166.276 9.44018 165.638 9.11314 164.87C8.83503 164.106 8.60584 163.346 8.52345 162.6C8.28055 160.312 8.73296 158.528 9.97424 157.306C11.1709 156.031 13.1117 155.265 15.7968 155.008L26.0033 153.883C26.7991 153.805 27.4566 153.616 27.8738 153.357C28.3399 153.102 28.6232 152.684 28.8129 152.207C28.958 151.678 29.0138 151.042 28.9314 150.296L28.94 150.198L29.34 150.134L30.0919 157.297L15.4088 158.867C13.1683 159.114 11.6 159.568 10.6463 160.322C9.69691 161.027 9.3089 162.077 9.43335 163.468C9.54321 164.464 9.91059 165.334 10.4952 165.977C11.0797 166.619 11.9261 167.088 12.9364 167.374C13.9511 167.611 15.1786 167.669 16.619 167.549L27.3723 166.374C28.168 166.296 28.8256 166.107 29.2428 165.848C29.7089 165.593 29.9922 165.174 30.1819 164.698C30.327 164.169 30.3828 163.533 30.3004 162.786L30.309 162.689L30.709 162.625L31.4608 169.788L16.7778 171.358C14.5373 171.605 12.9647 172.107 12.0153 172.813C11.0616 173.567 10.6736 174.617 10.8427 176.061C10.9482 177.105 11.3156 177.975 11.9448 178.671C12.5783 179.318 13.4247 179.787 14.5372 180.033C15.6497 180.278 16.9794 180.296 18.6198 180.144L28.773 179.064C29.5688 178.986 30.2263 178.797 30.6435 178.538C31.1096 178.284 31.3929 177.865 31.5826 177.389C31.7277 176.859 31.7835 176.223 31.7011 175.477L31.7097 175.379L32.1097 175.316L33.1568 185.856Z" fill="#112E3E"/>
<path id="Vector_15" d="M33.4474 139.849C32.7942 142.799 31.3331 144.839 29.0557 146.068C26.7784 147.298 23.9508 147.493 20.5687 146.703C16.893 145.888 14.3049 144.478 12.7958 142.571C11.2911 140.615 10.8568 138.261 11.444 135.503C12.014 132.941 13.2578 131.128 15.1755 130.064C17.0932 129.001 19.5783 128.775 22.7201 129.495L23.6858 129.727L20.7121 142.822C23.3731 143.401 25.5664 143.692 27.2918 143.696C29.0172 143.699 30.3279 143.371 31.2731 142.714C32.2182 142.058 32.8465 141.078 33.1135 139.722C33.3505 138.707 33.3788 137.823 33.1582 136.966C32.9865 136.113 32.5616 135.336 31.9814 134.644C31.4011 133.953 30.5633 133.386 29.5615 133.003C29.6852 132.718 29.9023 132.491 30.2045 132.419C30.511 132.298 30.8045 132.323 31.0981 132.349C31.632 132.445 32.1402 132.835 32.6269 133.469C33.1136 134.103 33.481 134.973 33.6844 136.026C33.8879 137.079 33.7762 138.351 33.4474 139.849ZM22.3638 133.554C20.0409 133.054 18.1945 132.744 16.7181 132.713C15.2416 132.682 14.1351 132.93 13.354 133.404C12.5728 133.877 12.0637 134.621 11.8268 135.635C11.5856 136.699 11.6997 137.645 12.1693 138.475C12.6388 139.304 13.5616 140.026 14.8844 140.684C16.2072 141.343 17.9746 141.991 20.2889 142.588L22.3638 133.554Z" fill="#112E3E"/>
<path id="Vector_16" d="M29.6738 117.685L28.9699 117.278L34.1574 108.172L34.8613 108.579L29.6738 117.685Z" fill="#112E3E"/>
<path id="Vector_17" d="M57.0348 99.1904C55.7403 100.457 54.3334 101.319 52.814 101.777C51.2946 102.235 49.6756 102.142 47.9571 101.499C46.2386 100.855 44.4291 99.5625 42.5286 97.6214C40.5835 95.6271 39.3637 93.7951 38.7757 92.0678C38.1877 90.3405 38.1783 88.7626 38.6496 87.3254C39.1209 85.8882 39.975 84.5832 41.1631 83.4061C41.97 82.639 42.8705 81.9295 43.8516 81.4242C44.8371 80.87 45.8011 80.5603 46.6904 80.5398C47.6329 80.4747 48.4433 80.7923 49.1171 81.5414C49.5231 81.9713 49.7824 82.3883 49.7927 82.8328C49.8519 83.2816 49.76 83.7664 49.4725 84.234C49.2338 84.7059 48.7952 85.2095 48.2544 85.7534C47.2595 84.7297 46.3899 83.9634 45.5968 83.4502C44.8036 82.937 44.0868 82.677 43.3932 82.7147C42.6996 82.7524 42.0292 83.0878 41.3777 83.7699C40.6772 84.4477 40.2617 85.2491 40.1759 86.2272C40.0411 87.2011 40.3827 88.3646 41.1965 89.7667C41.9613 91.1646 43.3897 92.8671 45.3751 94.9634C47.231 96.8513 48.8362 98.2243 50.2396 99.0868C51.6431 99.9492 52.8938 100.305 54.0364 100.209C55.1789 100.112 56.2133 99.5618 57.2374 98.5674C57.8846 97.9343 58.3362 97.2839 58.6452 96.5717C58.9542 95.8596 59.0229 95.0771 58.9045 94.1795C58.786 93.282 58.3337 92.2566 57.641 91.1608C57.8495 91.0313 58.1028 90.9549 58.3921 91.0296C58.6324 91.1 58.9174 91.2236 59.1895 91.4939C59.6402 91.977 59.8822 92.5897 59.9603 93.3851C60.0384 94.1805 59.859 95.1012 59.4221 96.1471C58.9002 97.0377 58.1164 98.1024 57.0348 99.1904Z" fill="#112E3E"/>
<path id="Vector_18" d="M62.4387 93.7997L62.2198 93.4848L62.6413 93.1768C63.3203 92.7435 63.8036 92.2931 64.0422 91.8212C64.3298 91.3536 64.4173 90.9177 64.3624 90.42C64.3075 89.9224 64.0611 89.3586 63.619 88.7777L50.4437 69.238C50.0059 68.6081 49.5999 68.1782 49.181 67.895C48.7088 67.6564 48.2238 67.5646 47.7217 67.6684C47.2195 67.7721 46.6066 68.0141 45.9233 68.4962L45.5018 68.8042L45.2829 68.4893L51.5751 64.2116L66.6312 86.4792C67.0647 87.158 67.5154 87.6411 67.9875 87.8797C68.4553 88.1672 68.9403 88.259 69.4425 88.1553C69.9447 88.0515 70.5576 87.8096 71.2409 87.3274L71.6623 87.0194L71.8812 87.3343L62.4387 93.7997Z" fill="#112E3E"/>
<path id="Vector_19" d="M66.1798 61.8459C65.7179 62.0518 65.269 62.111 64.8372 61.9745C64.4054 61.8381 64.0037 61.3592 63.6234 60.6359C63.2475 59.8636 63.1522 59.2638 63.2887 58.8322C63.4252 58.4006 63.7488 58.0841 64.2149 57.8293C64.6278 57.6191 65.0768 57.5599 65.5575 57.7007C65.9893 57.8371 66.4442 58.2713 66.8202 59.0436C67.1961 59.8159 67.2914 60.4157 67.106 60.843C66.8674 61.3149 66.5927 61.6358 66.1798 61.8459ZM72.3385 87.1768L72.1728 86.8173L72.6346 86.6114C73.354 86.2802 73.8819 85.883 74.2141 85.4686C74.5463 85.0542 74.7317 84.6269 74.73 84.0846C74.724 83.5913 74.5798 82.9872 74.2399 82.3659L67.893 69.2905C67.5574 68.6203 67.2089 68.0969 66.79 67.8137C66.3754 67.4816 65.9436 67.3451 65.4011 67.3468C64.8586 67.3485 64.25 67.5415 63.5263 67.9215L63.4242 67.9618L63.2585 67.6023L69.7498 64.4264L77.5602 80.4888C77.8916 81.2079 78.289 81.7356 78.7036 82.0677C79.1182 82.3998 79.5946 82.5895 80.1414 82.5389C80.684 82.5373 81.2926 82.3443 82.0119 82.0131L82.4737 81.8072L82.6394 82.1668L72.3385 87.1768Z" fill="#112E3E"/>
<path id="Vector_20" d="M93.0408 79.3838C91.2725 79.8693 89.6407 79.9232 88.0921 79.5902C86.5435 79.2571 85.189 78.3989 83.9838 76.9625C82.7743 75.5749 81.8164 73.5687 81.1099 70.9439C80.3589 68.2658 80.1563 66.0795 80.5109 64.2871C80.8654 62.4947 81.5771 61.1279 82.6544 60.0889C83.7806 59.0542 85.1258 58.3344 86.743 57.8849C87.8538 57.5882 88.9517 57.4381 90.0857 57.4391C91.2196 57.44 92.1896 57.6237 93.0403 58.0434C93.891 58.463 94.4266 59.1015 94.6875 60.0608C94.836 60.616 94.842 61.1093 94.6566 61.5366C94.4712 61.9639 94.1433 62.3294 93.7218 62.6374C93.3003 62.9454 92.6385 63.183 91.8788 63.4121C91.5054 62.0486 91.1105 60.9297 90.641 60.0999C90.2204 59.2744 89.6805 58.6849 89.0658 58.3845C88.4512 58.0842 87.713 58.0686 86.8022 58.3337C85.8915 58.5988 85.106 59.1212 84.5437 59.9097C83.9815 60.6982 83.6784 61.9037 83.7368 63.486C83.7462 65.0639 84.1445 67.2674 84.8869 70.0433C85.602 72.5703 86.3642 74.5593 87.1737 76.0103C87.9831 77.4613 88.9377 78.383 89.9351 78.8155C90.9815 79.2523 92.1601 79.3065 93.5241 78.9334C94.3817 78.7129 95.1053 78.3329 95.7397 77.8464C96.3251 77.3557 96.8256 76.7096 97.0986 75.8465C97.4205 74.9876 97.5149 73.9116 97.484 72.5782C97.733 72.5508 97.9733 72.6211 98.2051 72.7893C98.3879 72.9532 98.5622 73.215 98.6789 73.5702C98.8721 74.1786 98.763 74.859 98.4497 75.6201C98.1364 76.3811 97.5338 77.0675 96.6822 77.7813C95.6882 78.4333 94.507 78.9704 93.0408 79.3838Z" fill="#112E3E"/>
<path id="Vector_21" d="M100.076 76.7488L100.062 76.3532L100.409 76.3344C101.2 76.3053 101.853 76.1655 102.315 75.9596C102.777 75.7537 103.154 75.3925 103.343 74.9163C103.533 74.4401 103.634 73.8575 103.6 73.1153L103.001 49.6031C102.968 48.8609 102.873 48.2611 102.618 47.7952C102.412 47.3335 102.046 47.0057 101.521 46.8117C101.044 46.6221 100.364 46.513 99.5721 46.5421L99.4742 46.5336L99.4596 46.138L106.672 45.9825L107.134 62.632C107.135 63.1743 107.137 63.7166 107.192 64.2143C107.194 64.7565 107.2 65.2499 107.201 65.7922C107.203 66.3345 107.205 66.8768 107.206 67.4191L113.861 59.5754C114.3 59.0718 114.632 58.6574 114.915 58.2387C115.198 57.82 115.424 57.4948 115.552 57.161C115.68 56.8273 115.75 56.587 115.767 56.3914C115.757 55.9469 115.44 55.6234 114.866 55.4251C114.288 55.2758 113.358 55.1942 112.122 55.2335L112.107 54.838L121.005 54.5839L121.019 54.9795C120.326 55.0172 119.73 55.0635 119.223 55.2162C118.717 55.3689 118.144 55.7129 117.506 56.2482C116.867 56.7836 116.052 57.6484 115.064 58.7938L112.033 62.4214L118.506 71.8115C119.382 73.0712 120.043 73.9671 120.587 74.5077C121.082 75.044 121.546 75.3804 121.876 75.5572C122.21 75.6851 122.597 75.7684 122.943 75.7495L123.041 75.7581L123.056 76.1537L121.277 76.1947C120.486 76.2238 119.752 76.1594 119.165 76.1078C118.582 76.0074 118.003 75.858 117.527 75.6684C117.055 75.4298 116.636 75.1466 116.226 74.7656C115.815 74.3846 115.414 73.9058 115.02 73.3291L109.561 65.3093L107.253 68.0145L107.37 72.8548C107.399 73.6459 107.539 74.2989 107.745 74.7605C107.951 75.2222 108.313 75.5989 108.838 75.7929C109.315 75.9825 109.995 76.0916 110.787 76.0625L110.885 76.0711L110.899 76.4666L100.076 76.7488Z" fill="#112E3E"/>
<path id="Vector_22" d="M130.589 76.2724L130.771 75.894L131.056 76.0176C131.817 76.3308 132.44 76.5334 132.934 76.5274C133.476 76.5258 133.934 76.3688 134.306 76.0565C134.679 75.7442 135.02 75.232 135.324 74.5687L141.224 61.2867C141.528 60.6235 141.682 59.9963 141.676 59.5029C141.67 59.0095 141.464 58.5479 141.103 58.1712C140.741 57.7945 140.184 57.4006 139.472 57.0916L139.378 57.0341L139.559 56.6557L146.11 59.5471L144.569 63.0589L144.662 63.1164C145.482 62.2027 146.325 61.5867 147.142 61.2641C147.955 60.9905 148.755 60.8635 149.583 60.9855C150.361 61.1031 151.131 61.3185 151.893 61.6318C153.175 62.1879 154.236 63.0203 154.978 64.1204C155.72 65.2205 155.982 66.7221 155.713 68.6698L155.806 68.7273C156.701 67.5244 157.605 66.766 158.476 66.3988C159.346 66.0316 160.146 65.9047 160.974 66.0266C161.752 66.1442 162.522 66.3597 163.186 66.6644C165.274 67.5869 166.59 68.8853 167.085 70.5551C167.579 72.2249 167.252 74.2661 166.148 76.7321L161.971 86.1238C161.658 86.8849 161.455 87.5078 161.461 88.0012C161.463 88.5435 161.62 89.0008 162.03 89.3818C162.392 89.7585 162.949 90.1524 163.661 90.4614L163.755 90.5189L163.525 90.893L156.93 87.9484L162.948 74.4305C163.867 72.3919 164.204 70.7951 164.062 69.5998C163.921 68.4045 163.207 67.5533 161.973 67.0015C161.024 66.5732 160.144 66.4959 159.242 66.6631C158.388 66.8347 157.558 67.304 156.849 68.0796C156.091 68.8509 155.458 69.8796 154.902 71.1615L150.535 81.0295C150.222 81.7905 150.019 82.4134 150.025 82.9068C150.027 83.4491 150.184 83.9064 150.595 84.2875C150.956 84.6642 151.513 85.0581 152.226 85.367L152.319 85.4245L152.138 85.8029L145.539 82.9073L151.557 69.3893C152.476 67.3507 152.813 65.7539 152.671 64.5586C152.53 63.3634 151.767 62.5078 150.488 61.9028C149.491 61.4702 148.566 61.3397 147.708 61.5602C146.802 61.7763 146.02 62.2499 145.254 63.119C144.492 63.9392 143.797 65.1104 143.126 66.5793L138.904 75.9179C138.591 76.679 138.388 77.3019 138.394 77.7953C138.396 78.3375 138.553 78.7949 138.963 79.1759C139.325 79.5526 139.882 79.9465 140.594 80.2555L140.688 80.313L140.507 80.6913L130.589 76.2724Z" fill="#112E3E"/>
<path id="Vector_23" d="M170.254 99.6157C168.068 97.5511 166.989 95.2385 167.115 92.6867C167.191 90.1306 168.45 87.5798 170.844 85.0299C173.401 82.2972 175.904 80.7427 178.349 80.4151C180.794 80.0876 183.042 80.8763 185.138 82.8346C187.051 84.6289 188.013 86.5862 187.967 88.7999C187.921 91.0137 186.887 93.2394 184.658 95.6065L184.002 96.3375L174.208 87.1487C172.355 89.1546 171.018 90.9101 170.146 92.4107C169.279 93.8624 168.915 95.2104 169.016 96.3036C169.117 97.3967 169.663 98.4796 170.667 99.4055C171.394 100.11 172.191 100.574 173.055 100.847C173.869 101.116 174.754 101.144 175.656 100.977C176.559 100.81 177.433 100.394 178.33 99.7331C178.504 99.9949 178.576 100.297 178.55 100.59C178.475 100.88 178.352 101.164 178.135 101.392C177.754 101.802 177.19 102.048 176.39 102.175C175.59 102.302 174.664 102.171 173.613 101.783C172.465 101.387 171.395 100.652 170.254 99.6157ZM181.315 93.2432C182.946 91.5135 184.111 90.0386 184.863 88.7739C185.615 87.5092 186.003 86.459 185.987 85.5212C185.97 84.5833 185.55 83.7579 184.823 83.0533C184.002 82.2913 183.147 81.9206 182.16 81.9325C181.222 81.9487 180.102 82.3433 178.9 83.1249C177.697 83.9064 176.207 85.1556 174.531 86.8321L181.315 93.2432Z" fill="#112E3E"/>
<path id="Vector_24" d="M191.303 107.525L191.978 107.141L197.249 116.179L196.575 116.563L191.303 107.525Z" fill="#112E3E"/>
</g>
<rect id="clipping-mask" x="6.13428" y="12.9805" width="221.075" height="110.242" fill="#34C027"/>
</g>
<defs>
<clipPath id="clip0_101_124">
<rect width="242" height="272" fill="white"/>
</clipPath>
</defs>
</svg>
