<svg width="375" height="28" viewBox="0 0 375 28" fill="none" xmlns="http://www.w3.org/2000/svg">
<g id="darkPurpleWaveGroup">
<path d="M94.3041 14.7764V27.1066L109.786 27.1066H0V14.7631C2.45288 15.2379 8.94905 14.2409 15.3107 6.455C21.6724 -1.33091 27.3773 0.0458699 29.4345 1.7075C30.2258 2.18225 32.1881 3.9863 33.7073 7.4045C32.4808 6.57369 29.6482 5.5055 28.129 7.87925C26.6098 10.253 27.496 13.0619 28.129 14.1697C29.1576 15.6335 32.2356 18.1813 36.3184 16.6621C40.4013 15.1429 42.688 12.152 43.321 10.8464C44.7848 8.51225 48.1872 3.48781 50.0862 2.06356C51.9852 0.639307 54.5963 0.124994 55.6645 0.0458692C58.3152 -0.231069 63.8302 0.61557 64.6847 6.21762C63.1022 5.07031 59.5812 3.58276 58.1569 6.81106C56.7327 10.0394 59.0669 13.0619 60.0559 14.1697C61.8758 15.5544 65.9191 17.2318 70.3818 12.8641C72.0829 11.4399 76.2212 7.66561 79.1646 3.96256C82.1081 0.259507 87.4332 0.0458697 89.7278 0.401933C92.062 0.52062 96.6829 1.96861 96.493 6.81106C94.7918 6.09894 91.3182 5.74288 91.0334 10.0156C90.8568 12.6644 92.4956 14.0817 94.3041 14.7764Z" fill="#2E1845"/>
<path d="M281.859 14.7764V27.1066L297.341 27.1066H187.554V14.7631C190.007 15.2379 196.504 14.2409 202.865 6.455C209.227 -1.33091 214.932 0.0458699 216.989 1.7075C217.78 2.18225 219.743 3.9863 221.262 7.4045C220.035 6.57369 217.203 5.5055 215.683 7.87925C214.164 10.253 215.05 13.0619 215.683 14.1697C216.712 15.6335 219.79 18.1813 223.873 16.6621C227.956 15.1429 230.242 12.152 230.875 10.8464C232.339 8.51225 235.742 3.48781 237.641 2.06356C239.54 0.639307 242.151 0.124994 243.219 0.0458692C245.87 -0.231069 251.385 0.61557 252.239 6.21762C250.657 5.07031 247.136 3.58276 245.711 6.81106C244.287 10.0394 246.621 13.0619 247.61 14.1697C249.43 15.5544 253.474 17.2318 257.936 12.8641C259.637 11.4399 263.776 7.66561 266.719 3.96256C269.663 0.259507 274.988 0.0458697 277.282 0.401933C279.616 0.52062 284.237 1.96861 284.047 6.81106C282.346 6.09894 278.873 5.74288 278.588 10.0156C278.411 12.6645 280.05 14.0817 281.859 14.7764Z" fill="#2E1845"/>
<path d="M94.1575 14.7631C96.6104 15.2379 103.107 14.2409 109.468 6.455C115.83 -1.33091 121.535 0.0458699 123.592 1.7075C124.383 2.18225 126.346 3.9863 127.865 7.4045C126.638 6.57369 123.806 5.5055 122.286 7.87925C120.767 10.253 121.653 13.0619 122.286 14.1697C123.315 15.6335 126.393 18.1813 130.476 16.6621C134.559 15.1429 136.846 12.152 137.479 10.8464C138.942 8.51225 142.345 3.48781 144.244 2.06356C146.143 0.639307 148.754 0.124994 149.822 0.0458692C152.473 -0.231068 157.988 0.61557 158.842 6.21762C157.26 5.07031 153.739 3.58276 152.314 6.81106C150.89 10.0394 153.224 13.0619 154.213 14.1697C156.033 15.5544 160.077 17.2318 164.539 12.8641C166.24 11.4399 170.379 7.66561 173.322 3.96256C176.266 0.259507 181.591 0.0458697 183.885 0.401933C186.22 0.52062 190.84 1.96861 190.651 6.81106C188.949 6.09894 185.476 5.74288 185.191 10.0156C185.014 12.6645 186.653 14.0817 188.462 14.7764V27.1067L94.1575 27.1066V14.7631Z" fill="#2E1845"/>
<path d="M281.712 14.7631C284.165 15.2379 290.661 14.2409 297.023 6.455C303.384 -1.33091 309.089 0.0458699 311.147 1.7075C311.938 2.18225 313.9 3.9863 315.419 7.4045C314.193 6.57369 311.36 5.5055 309.841 7.87925C308.322 10.253 309.208 13.0619 309.841 14.1697C310.87 15.6335 313.948 18.1813 318.03 16.6621C322.113 15.1429 324.4 12.152 325.033 10.8464C326.497 8.51225 329.899 3.48781 331.798 2.06356C333.697 0.639307 336.308 0.124994 337.376 0.0458692C340.027 -0.231069 345.542 0.61557 346.397 6.21762C344.814 5.07031 341.293 3.58276 339.869 6.81106C338.445 10.0394 340.779 13.0619 341.768 14.1697C343.588 15.5544 347.631 17.2318 352.094 12.8641C353.795 11.4399 357.933 7.66561 360.877 3.96256C363.82 0.259507 369.145 0.0458697 371.44 0.401933C373.774 0.52062 378.395 1.96861 378.205 6.81106C376.504 6.09894 373.03 5.74288 372.745 10.0156C372.569 12.6645 374.208 14.0817 376.016 14.7764V27.1067L281.712 27.1066V14.7631Z" fill="#2E1845"/>
</g>
</svg>
