<svg width="1440" height="115" viewBox="0 0 1440 115" fill="none" xmlns="http://www.w3.org/2000/svg">
<g id="wave">
<path d="M-40 62.2469C-29.6667 64.2469 -2.3 60.047 24.5 27.247C51.3 -5.55305 75.3333 0.246949 84 7.24695C87.3333 9.24695 95.6 16.8469 102 31.2469C96.8333 27.7469 84.9 23.2469 78.5 33.2469C72.1 43.2469 75.8333 55.0803 78.5 59.7469C82.8333 65.9136 95.8 76.6469 113 70.2469C130.2 63.847 139.833 51.2469 142.5 45.7469C148.667 35.9136 163 14.7469 171 8.74695C179 2.74695 190 0.580279 194.5 0.246946C205.667 -0.91972 228.9 2.64695 232.5 26.2469C225.833 21.4136 211 15.147 205 28.7469C199 42.3469 208.833 55.0803 213 59.7469C220.667 65.5803 237.7 72.6469 256.5 54.2469C263.667 48.2469 281.1 32.3469 293.5 16.7469C305.9 1.14695 328.333 0.246948 338 1.74695C347.833 2.24695 367.3 8.34695 366.5 28.7469C359.333 25.7469 344.7 24.2469 343.5 42.2469C342.756 53.4057 349.66 59.3762 357.279 62.3027V114.247H-40V62.2469Z" fill="#2E1845"/>
<path d="M750.118 62.2469C760.451 64.2469 787.818 60.047 814.618 27.247C841.418 -5.55305 865.451 0.246949 874.118 7.24695C877.451 9.24695 885.718 16.8469 892.118 31.2469C886.951 27.7469 875.018 23.2469 868.618 33.2469C862.218 43.2469 865.951 55.0803 868.618 59.7469C872.951 65.9136 885.918 76.6469 903.118 70.2469C920.318 63.847 929.951 51.2469 932.618 45.7469C938.785 35.9136 953.118 14.7469 961.118 8.74695C969.118 2.74695 980.118 0.580279 984.618 0.246946C995.785 -0.91972 1019.02 2.64695 1022.62 26.2469C1015.95 21.4136 1001.12 15.147 995.118 28.7469C989.118 42.3469 998.951 55.0803 1003.12 59.7469C1010.78 65.5803 1027.82 72.6469 1046.62 54.2469C1053.78 48.2469 1071.22 32.3469 1083.62 16.7469C1096.02 1.14695 1118.45 0.246948 1128.12 1.74695C1137.95 2.24695 1157.42 8.34695 1156.62 28.7469C1149.45 25.7469 1134.82 24.2469 1133.62 42.2469C1132.87 53.4057 1139.78 59.3762 1147.4 62.3027V114.247H750.118V62.2469Z" fill="#2E1845"/>
<path d="M356.661 62.2469C366.994 64.2469 394.361 60.047 421.161 27.247C447.961 -5.55305 471.994 0.246949 480.661 7.24695C483.994 9.24695 492.261 16.8469 498.661 31.2469C493.494 27.7469 481.561 23.2469 475.161 33.2469C468.761 43.2469 472.494 55.0803 475.161 59.7469C479.494 65.9136 492.461 76.6469 509.661 70.2469C526.861 63.847 536.494 51.2469 539.161 45.7469C545.328 35.9136 559.661 14.7469 567.661 8.74695C575.661 2.74695 586.661 0.580279 591.161 0.246946C602.328 -0.91972 625.561 2.64695 629.161 26.2469C622.494 21.4136 607.661 15.147 601.661 28.7469C595.661 42.3469 605.494 55.0803 609.661 59.7469C617.328 65.5803 634.361 72.6469 653.161 54.2469C660.328 48.2469 677.761 32.3469 690.161 16.7469C702.561 1.14695 724.994 0.246948 734.661 1.74695C744.494 2.24695 763.961 8.34695 763.161 28.7469C755.994 25.7469 741.361 24.2469 740.161 42.2469C739.417 53.4057 746.321 59.3762 753.94 62.3027V114.247H356.661V62.2469Z" fill="#2E1845"/>
<path d="M1146.78 62.2469C1157.11 64.2469 1184.48 60.047 1211.28 27.247C1238.08 -5.55305 1262.11 0.246949 1270.78 7.24695C1274.11 9.24695 1282.38 16.8469 1288.78 31.2469C1283.61 27.7469 1271.68 23.2469 1265.28 33.2469C1258.88 43.2469 1262.61 55.0803 1265.28 59.7469C1269.61 65.9136 1282.58 76.6469 1299.78 70.2469C1316.98 63.847 1326.61 51.2469 1329.28 45.7469C1335.45 35.9136 1349.78 14.7469 1357.78 8.74695C1365.78 2.74695 1376.78 0.580279 1381.28 0.246946C1392.45 -0.91972 1415.68 2.64695 1419.28 26.2469C1412.61 21.4136 1397.78 15.147 1391.78 28.7469C1385.78 42.3469 1395.61 55.0803 1399.78 59.7469C1407.45 65.5803 1424.48 72.6469 1443.28 54.2469C1450.45 48.2469 1467.88 32.3469 1480.28 16.7469C1492.68 1.14695 1515.11 0.246948 1524.78 1.74695C1534.61 2.24695 1554.08 8.34695 1553.28 28.7469C1546.11 25.7469 1531.48 24.2469 1530.28 42.2469C1529.54 53.4057 1536.44 59.3762 1544.06 62.3027V114.247H1146.78V62.2469Z" fill="#2E1845"/>
</g>
</svg>
