<svg width="182" height="182" viewBox="0 0 182 182" fill="none" xmlns="http://www.w3.org/2000/svg">
<g id="hc1">
<g id="about-illustrations">
<g id="about-plant-2">
<path id="Vector" d="M128.749 107.608C127.441 106.41 129.788 104.462 128.749 102.197C127.822 100.17 124.809 99.2467 123.389 98.8139C121.302 98.1719 120.852 98.5903 117.873 97.7318C114.202 96.6786 113.873 95.7552 113.812 95.4305C113.767 95.225 113.78 95.0135 113.851 94.8131C113.921 94.6126 114.048 94.4287 114.219 94.2763C114.868 93.7858 115.951 94.1465 117.683 94.4855C120.28 94.9833 122.012 95.3368 122.393 94.8895C122.991 94.1681 120.202 90.5611 116.548 90.1571C115.232 90.0056 114.868 90.388 112.002 90.2942C108.599 90.1788 108.097 89.6089 107.941 89.3419C107.798 89.098 107.752 88.8225 107.81 88.5552C107.867 88.288 108.026 88.043 108.262 87.8559C108.582 87.6899 108.92 87.8559 109.768 88.0001C111.258 88.3176 112.279 88.534 112.643 88.2238C113.007 87.9136 112.643 86.8964 112.115 86.2615C111.249 85.2011 110.383 85.3454 109.145 84.2344C108.651 83.7944 107.413 82.7195 107.811 81.76C107.914 81.4972 108.107 81.2656 108.368 81.0948C108.628 80.9239 108.944 80.8215 109.275 80.8006C110.097 80.8583 110.279 81.8755 112.02 83.2389C112.79 83.8377 112.989 83.8304 113.085 83.7944C113.604 83.5707 112.288 81.6302 113.18 80.8367C113.56 80.5824 114.038 80.4499 114.525 80.4631C115.013 80.4763 115.478 80.6344 115.838 80.9088C116.401 81.4426 115.916 82.1712 115.925 83.5707C115.995 84.633 116.264 85.6796 116.722 86.6727C118.228 90.2076 125.216 93.0066 126.896 91.7225C127.762 91.0516 127.095 89.4141 126.636 88.2454C124.48 82.8277 118.055 79.5886 117.068 79.1125C114.15 77.6697 110.712 76.6453 110.028 74.6254C109.959 74.4234 109.69 73.6299 110.115 73.3197C110.539 73.0095 111.145 73.3197 112.712 73.6804C114.28 74.0411 115.189 74.243 115.405 74.0483C115.942 73.5577 114.539 71.1627 112.279 69.4818C111.128 68.6522 110.149 68.3204 110.019 67.4547C109.958 67.1111 110.025 66.7601 110.211 66.4491C110.396 66.1382 110.692 65.8823 111.059 65.7161C112.513 65.3121 114.765 67.8803 115.838 69.1211C119.527 73.3413 119.198 75.8229 122.454 77.3739C122.999 77.6409 125.051 78.557 126.186 77.8861C126.524 77.6841 127.32 76.9988 126.532 73.904C125.883 71.2926 124.255 67.5485 119.536 61.5681C118.384 60.1253 116.99 58.43 117.709 57.1531C117.868 56.8378 118.135 56.5685 118.477 56.3786C118.819 56.1888 119.22 56.0869 119.631 56.0854C120.428 56.1792 120.826 57.0016 121.726 58.8268C123.77 62.9532 124.324 64.0641 125.294 64.1507C125.576 64.145 125.854 64.0877 126.106 63.983C126.359 63.8783 126.581 63.7287 126.757 63.5447C128.056 62.3977 127.251 60.6086 126.757 57.0521C126.307 53.8419 125.961 51.1511 127.485 50.3503C127.801 50.189 128.165 50.1037 128.537 50.1037C128.908 50.1037 129.272 50.189 129.589 50.3503C130.853 51.0717 130.169 53.373 129.823 55.4001C129.147 59.4977 130.42 59.137 130.134 64.4176C129.805 70.6721 127.84 74.4378 130.048 76.5227C130.197 76.6924 130.388 76.834 130.607 76.9384C130.826 77.0428 131.069 77.1076 131.321 77.1286C132.931 77.0637 133.918 73.6587 134.247 72.5622C134.871 70.398 135.338 67.6134 134.706 61.2146C134.36 57.723 134.706 54.1882 134.161 50.711C134.022 49.8886 133.702 48.0563 134.793 47.4359C135.185 47.2637 135.629 47.1937 136.069 47.2349C136.509 47.276 136.925 47.4265 137.261 47.6667C138.36 48.4458 138.014 49.9824 137.72 52.161C137.347 54.9384 136.533 61.0559 138.36 61.6763C138.56 61.7188 138.768 61.7273 138.972 61.7013C139.176 61.6753 139.371 61.6152 139.547 61.5248C140.413 61.1064 140.413 60.1686 140.915 58.5526C141.356 57.218 141.902 55.566 143.019 55.3568C143.346 55.3267 143.676 55.3665 143.979 55.4725C144.282 55.5786 144.548 55.7473 144.751 55.9628C146.37 57.6004 143.72 61.5825 142.153 63.8982C140.006 67.1228 139.339 66.9353 137.824 69.453C135.901 72.9806 135.087 76.9194 135.901 77.2657C136.291 77.41 136.984 76.7463 138.369 75.4334C141.14 72.8075 141.469 71.4945 143.305 71.0184C144.248 70.7731 145.53 70.7731 145.859 71.2492C146.188 71.7254 145.495 72.5333 145.218 72.8508C144.032 74.2358 142.681 74.1709 141.114 75.6642C141.001 75.7724 139.919 76.804 140.196 77.107C140.473 77.41 142.101 76.3856 143.582 76.8834C144.292 77.1286 144.959 77.7491 144.855 78.254C144.707 78.9754 143.045 79.0259 141.296 79.6247C138.91 80.5098 136.948 82.0332 135.719 83.9531C134.465 85.9702 134.138 88.2998 134.802 90.5034C135.087 91.3474 135.667 93.1293 136.819 93.2447C138.334 93.389 140.716 90.5034 141.201 87.5312C141.564 85.3093 140.707 83.9819 141.937 82.8926C142.802 82.1063 144.344 81.7961 144.855 82.2073C145.573 82.7628 143.989 84.4508 145.036 85.5546C145.153 85.6946 145.302 85.814 145.474 85.9056C145.647 85.9973 145.839 86.0594 146.041 86.0884C147.045 86.0884 147.842 84.725 149.79 81.0386C149.79 81.0386 150.873 78.9971 153.721 74.8707C154.232 74.1493 154.951 73.1177 155.912 73.1249C156.301 73.1585 156.67 73.2836 156.977 73.4854C157.283 73.6872 157.515 73.9575 157.644 74.2647C158.389 76.0538 154.423 77.5975 152.795 82.0269C152.301 83.3976 152.206 84.5374 152.613 84.6961C153.02 84.8548 153.886 83.5347 155.817 83.0946C156.856 82.8566 158.233 82.8854 158.467 83.3255C158.761 83.9026 157.021 85.0424 156.267 85.533C155.066 86.2282 153.817 86.8641 152.526 87.4374C150.942 88.2743 151.323 88.3104 149.418 89.4141C146.915 90.8569 145.712 91.131 144.846 92.4584C144.751 92.6099 144.11 93.5982 144.482 93.9012C144.855 94.2042 146.534 92.9778 148.872 93.1365C149.834 93.2014 151.106 93.5332 151.15 93.9733C151.193 94.4134 149.885 94.7741 146.127 96.1808C144.197 96.9022 143.235 97.2629 142.664 97.5515C140.889 98.4316 138.759 99.492 137.91 101.281C136.793 103.654 139.027 105.04 137.728 106.612C136.516 108.055 133.563 108.113 131.97 108.134C130.377 108.156 129.372 108.178 128.749 107.608Z" fill="#2E1845"/>
<path id="Vector_2" d="M129.098 106.852C127.895 105.685 130.054 103.786 129.098 101.578C128.246 99.6025 125.474 98.7024 124.167 98.2805C122.247 97.6547 121.833 98.0625 119.093 97.2257C115.715 96.1991 115.412 95.299 115.356 94.9826C115.315 94.7822 115.327 94.5761 115.392 94.3807C115.457 94.1852 115.573 94.006 115.731 93.8575C116.328 93.3793 117.324 93.7309 118.917 94.0614C121.307 94.5466 122.901 94.8911 123.251 94.4552C123.801 93.752 121.236 90.236 117.874 89.8422C116.663 89.6946 116.328 90.0673 113.692 89.9759C110.561 89.8633 110.099 89.3078 109.955 89.0476C109.824 88.8099 109.781 88.5413 109.834 88.2808C109.887 88.0203 110.033 87.7815 110.25 87.5991C110.545 87.4373 110.856 87.5991 111.636 87.7397C113.006 88.0491 113.946 88.2601 114.281 87.9577C114.616 87.6553 114.281 86.6638 113.795 86.045C112.998 85.0113 112.202 85.152 111.063 84.069C110.609 83.6401 109.469 82.5924 109.836 81.6571C109.93 81.4009 110.108 81.1752 110.348 81.0086C110.587 80.8421 110.878 80.7423 111.182 80.7219C111.939 80.7782 112.106 81.7697 113.707 83.0987C114.416 83.6823 114.6 83.6753 114.687 83.6401C115.165 83.4221 113.954 81.5306 114.775 80.7571C115.125 80.5092 115.564 80.38 116.012 80.3929C116.461 80.4058 116.89 80.5599 117.221 80.8274C117.738 81.3477 117.292 82.0579 117.3 83.4221C117.365 84.4576 117.612 85.4777 118.033 86.4458C119.419 89.8915 125.848 92.6198 127.394 91.3682C128.19 90.7142 127.577 89.1179 127.155 87.9788C125.171 82.6978 119.26 79.5405 118.352 79.0764C115.667 77.67 112.505 76.6715 111.875 74.7026C111.811 74.5057 111.565 73.7322 111.955 73.4298C112.345 73.1275 112.903 73.4298 114.345 73.7814C115.787 74.133 116.623 74.3299 116.822 74.14C117.316 73.6619 116.026 71.3273 113.946 69.6889C112.887 68.8802 111.987 68.5567 111.867 67.7129C111.811 67.378 111.872 67.0358 112.043 66.7327C112.214 66.4296 112.486 66.1802 112.823 66.0182C114.162 65.6244 116.233 68.1278 117.221 69.3373C120.614 73.4509 120.311 75.8699 123.307 77.3818C123.809 77.6419 125.697 78.535 126.74 77.881C127.051 77.6841 127.784 77.0161 127.059 73.9994C126.461 71.4539 124.964 67.8043 120.622 61.9749C119.563 60.5685 118.28 58.916 118.941 57.6713C119.088 57.364 119.334 57.1015 119.648 56.9164C119.963 56.7314 120.332 56.632 120.71 56.6306C121.443 56.722 121.809 57.5237 122.638 59.3027C124.518 63.325 125.028 64.4079 125.92 64.4923C126.179 64.4867 126.435 64.4309 126.667 64.3288C126.9 64.2268 127.104 64.0809 127.266 63.9016C128.461 62.7835 127.72 61.0396 127.266 57.5729C126.852 54.4437 126.533 51.8208 127.935 51.0403C128.227 50.8831 128.562 50.7999 128.903 50.7999C129.245 50.7999 129.58 50.8831 129.871 51.0403C131.034 51.7435 130.405 53.9866 130.086 55.9626C129.465 59.9567 130.636 59.6051 130.373 64.7525C130.07 70.8491 128.262 74.5197 130.293 76.552C130.431 76.7174 130.606 76.8555 130.808 76.9572C131.009 77.059 131.233 77.1222 131.464 77.1427C132.946 77.0794 133.854 73.7603 134.157 72.6915C134.73 70.5819 135.161 67.8676 134.579 61.6303C134.26 58.2269 134.579 54.7812 134.077 51.3919C133.95 50.5902 133.655 48.8041 134.659 48.1994C135.019 48.0316 135.428 47.9633 135.833 48.0035C136.238 48.0436 136.62 48.1902 136.929 48.4244C137.941 49.1838 137.622 50.6817 137.351 52.8053C137.009 55.5126 136.26 61.4756 137.941 62.0804C138.125 62.1218 138.316 62.1301 138.504 62.1047C138.691 62.0794 138.871 62.0208 139.032 61.9327C139.829 61.5248 139.829 60.6107 140.291 59.0355C140.697 57.7346 141.199 56.1243 142.227 55.9204C142.527 55.891 142.831 55.9298 143.11 56.0332C143.389 56.1366 143.633 56.301 143.82 56.5111C145.31 58.1073 142.872 61.9889 141.43 64.2461C139.454 67.3894 138.841 67.2066 137.447 69.6607C135.678 73.0993 134.93 76.9387 135.678 77.2763C136.037 77.4169 136.674 76.77 137.949 75.4902C140.498 72.9306 140.801 71.6508 142.49 71.1867C143.358 70.9476 144.537 70.9475 144.84 71.4116C145.142 71.8757 144.505 72.6633 144.25 72.9727C143.159 74.3229 141.916 74.2596 140.474 75.7152C140.371 75.8207 139.375 76.8262 139.63 77.1216C139.885 77.4169 141.382 76.4183 142.745 76.9035C143.398 77.1426 144.011 77.7474 143.916 78.2396C143.78 78.9428 142.251 78.9921 140.641 79.5757C138.447 80.4385 136.641 81.9234 135.511 83.7948C134.357 85.761 134.057 88.0318 134.667 90.1798C134.93 91.0025 135.463 92.7394 136.523 92.8519C137.917 92.9926 140.108 90.1798 140.554 87.2826C140.888 85.1168 140.1 83.8229 141.231 82.7611C142.028 81.9946 143.446 81.6923 143.916 82.0931C144.577 82.6345 143.119 84.28 144.083 85.3559C144.19 85.4924 144.327 85.6088 144.486 85.6981C144.644 85.7874 144.822 85.848 145.007 85.8762C145.931 85.8762 146.664 84.5472 148.456 80.9539C148.456 80.9539 149.452 78.9639 152.073 74.9417C152.543 74.2385 153.204 73.2329 154.089 73.24C154.446 73.2728 154.786 73.3946 155.068 73.5913C155.35 73.7881 155.563 74.0515 155.682 74.351C156.367 76.0949 152.718 77.5997 151.221 81.9173C150.767 83.2533 150.679 84.3644 151.053 84.5191C151.428 84.6738 152.224 83.387 154.001 82.958C154.957 82.726 156.223 82.7541 156.439 83.1831C156.709 83.7456 155.108 84.8567 154.415 85.3348C153.31 86.0125 152.161 86.6323 150.974 87.1912C149.516 88.0069 149.866 88.0421 148.114 89.118C145.812 90.5244 144.704 90.7916 143.908 92.0854C143.82 92.2331 143.23 93.1965 143.573 93.4918C143.916 93.7871 145.461 92.5917 147.612 92.7464C148.496 92.8097 149.667 93.1332 149.707 93.5621C149.747 93.991 148.544 94.3426 145.087 95.7139C143.31 96.417 142.426 96.7687 141.9 97.0499C140.267 97.9078 138.307 98.9415 137.527 100.685C136.499 102.999 138.554 104.349 137.359 105.882C136.244 107.288 133.528 107.345 132.062 107.366C130.596 107.387 129.672 107.408 129.098 106.852Z" fill="#6C3F69" stroke="#231F20" stroke-width="0.220722" stroke-miterlimit="10"/>
</g>
<g id="about-plant-1">
<g id="Group 10">
<g id="drawsvg">
<path id="Vector 110" d="M54.2281 35.252C53.5309 37.4972 52.748 42.9903 55.1934 47.0004C57.6387 51.0105 58.1428 57.8611 58.0892 60.0019" stroke="#C26B7A" stroke-width="0.662166" stroke-linecap="round"/>
<path id="Vector 112" d="M43.9726 43.352C43.4324 45.8593 43.0205 51.942 45.694 56.2146C48.3675 60.4872 49.3134 67.9908 49.4008 70.3474" stroke="#A6416E" stroke-width="0.662166" stroke-linecap="round"/>
<path id="Vector 132" d="M41.8047 51.2839C41.6685 52.9116 42.1915 56.5829 45.3732 58.246C48.555 59.9091 50.5813 63.9886 51.0186 65.3347" stroke="#C26B7A" stroke-width="0.662166" stroke-linecap="round"/>
<path id="Vector 122" d="M40.6656 63.037C38.7242 65.0421 35.3833 70.4403 37.5512 75.9921C39.719 81.544 37.8132 89.0669 36.8952 91.3051" stroke="#A6416E" stroke-width="0.662166" stroke-linecap="round"/>
<path id="Vector 119" d="M39.0917 71.9656C39.6734 73.7751 40.1871 78.1506 37.5879 81.1769C34.9887 84.2031 34.1697 89.5776 34.1219 91.2689" stroke="#A6416E" stroke-width="0.662166" stroke-linecap="round"/>
<path id="Vector 130" d="M78.0851 25.1972C79.1067 26.8114 80.7115 30.9289 78.958 34.4853C77.2045 38.0418 77.7705 43.4471 78.152 45.0977" stroke="#A6416E" stroke-width="0.662166" stroke-linecap="round"/>
<path id="Vector 129" d="M91.2026 63.9866C92.9227 65.3322 95.7165 69.1298 93.131 73.5553C90.5454 77.9809 91.7599 83.5283 92.4632 85.1462" stroke="#A6416E" stroke-width="0.662166" stroke-linecap="round"/>
<path id="Vector 121" d="M43.3029 72.2142C45.376 73.895 48.8696 78.6213 46.2597 84.0803C43.6498 89.5393 45.4745 96.4194 46.4058 98.4289" stroke="#A6416E" stroke-width="1.10361" stroke-linecap="round"/>
<path id="Vector 131" d="M40.624 65.301C43.5657 67.0023 48.2029 72.1608 43.2179 79.1847C38.2329 86.2086 39.9085 94.2409 41.0179 96.5229" stroke="#C26B7A" stroke-width="0.662166" stroke-linecap="round"/>
<path id="Vector 126" d="M55.8515 26.4739C58.1046 28.5932 62.0386 34.3923 59.7503 40.6345C57.4619 46.8766 59.8359 55.0947 60.9389 57.5223" stroke="#A6416E" stroke-width="0.662166" stroke-linecap="round"/>
<path id="Vector 120" d="M34.2523 51.8404C35.8898 54.648 38.1742 61.703 34.2116 67.4626C30.2489 73.2222 30.3348 82.3198 30.7557 85.1201" stroke="#C26B7A" stroke-width="1.10361" stroke-linecap="round"/>
<path id="Vector 123" d="M29.5363 56.7343C31.3413 58.3339 34.0857 62.6913 30.6239 67.3238C27.1621 71.9563 27.9028 78.1029 28.5167 79.9221" stroke="#A6416E" stroke-width="0.662166" stroke-linecap="round"/>
<path id="Vector 114" d="M61.1026 72.068C60.2137 74.8942 59.2273 81.8048 62.3927 86.8381C65.5582 91.8715 66.2348 100.484 66.1743 103.177" stroke="#A6416E" stroke-width="1.10361" stroke-linecap="round"/>
<path id="Vector 118" d="M64.6746 61.9668C64.0735 65.4333 63.787 73.817 67.4498 79.6198C71.1126 85.4226 72.6554 95.7225 72.8665 98.9634" stroke="#C26B7A" stroke-width="1.10361" stroke-linecap="round"/>
<path id="Vector 125" d="M86.1599 49.878C85.0316 53.2176 83.4571 61.4647 86.1848 67.7367C88.9124 74.0087 88.8514 84.4173 88.561 87.6524" stroke="#A6416E" stroke-width="0.662166" stroke-linecap="round"/>
<path id="Vector 117" d="M69.9713 58.4851C68.3092 61.5532 66.4555 69.0526 72.3369 74.5057C78.2184 79.9588 79.4569 89.3011 79.3376 92.222" stroke="#A6416E" stroke-width="0.662166" stroke-linecap="round"/>
<path id="Vector 124" d="M80.3422 51.3667C77.3682 54.275 73.0148 62.0174 79.3927 69.7208C85.7706 77.4242 85.0309 88.0867 84.1309 91.2752" stroke="#C26B7A" stroke-width="0.662166" stroke-linecap="round"/>
<path id="Vector 128" d="M98.8065 52.4868C101.621 54.6906 105.584 60.7095 98.9214 67.1548C92.2586 73.6001 92.5117 82.1132 93.2597 84.63" stroke="#A6416E" stroke-width="0.662166" stroke-linecap="round"/>
<path id="Vector 115" d="M56.659 84.0679C56.1144 86.224 55.9259 91.3181 59.529 94.4454C63.1322 97.5726 64.7328 103.635 64.9712 105.571" stroke="#C26B7A" stroke-width="0.662166" stroke-linecap="round"/>
<path id="Vector 116" d="M65.7376 76.7471C64.4117 78.8403 62.7443 84.0546 66.6814 88.1656C70.6185 92.2767 71.0684 98.929 70.8482 100.987" stroke="#A6416E" stroke-width="0.662166" stroke-linecap="round"/>
<path id="Vector 127" d="M49.0983 27.6789C47.7071 30.8208 45.8798 38.6005 49.7002 44.5845C53.5206 50.5685 53.7711 60.4205 53.4886 63.4779" stroke="#A6416E" stroke-width="1.10361" stroke-linecap="round"/>
<path id="Vector 111" d="M66.5574 17.5511C65.3281 20.2795 63.9475 26.9546 68.2596 31.8276C72.5717 36.7007 73.4606 45.0255 73.3661 47.627" stroke="#C26B7A" stroke-width="1.10361" stroke-linecap="round"/>
<path id="Vector 113" d="M79.4531 10.4717C78.2387 13.1548 76.8749 19.7191 81.1345 24.5113C85.3941 29.3035 86.2722 37.4901 86.1788 40.0484" stroke="#A6416E" stroke-width="1.10361" stroke-linecap="round"/>
<path id="Vector 131_2" d="M88.1731 15.4274C86.4969 16.9367 83.9149 21.061 86.9964 25.4846C90.0778 29.9082 89.2949 35.7451 88.7026 37.4703" stroke="#A6416E" stroke-width="0.662166" stroke-linecap="round"/>
<path id="Vector 132_2" d="M99.4968 37.0658C96.4364 40.0808 91.4408 48.2587 95.9421 56.8499C100.443 65.4411 98.212 76.9264 96.9444 80.3321" stroke="#C26B7A" stroke-width="1.10361" stroke-linecap="round"/>
</g>
<path id="Vector_3" d="M59.8646 121.468C60.5442 121.998 61.4108 122.246 62.2766 122.157C63.3484 122.288 64.4299 122.002 65.2867 121.362C67.2502 119.634 65.4362 116.091 66.0342 111.985C66.2236 110.975 66.7419 108.374 71.0178 103.462C76.1807 97.4921 81.254 94.648 90.1347 88.5424C104.627 78.5927 107.188 75.1662 108.185 71.1766C108.773 68.8081 108.743 66.527 108.683 62.7413C108.584 56.2474 107.457 53.0441 106.899 48.4818C106.267 42.9918 106.604 37.4369 107.896 32.0577C107.647 29.7474 107.358 29.233 107.139 29.233C106.327 29.1854 105.449 34.849 105.321 35.6738L105.315 35.7172C104.896 38.3119 104.679 40.9338 104.667 43.5604C104.896 58.9459 108.205 67.5657 103.361 73.7199C102.237 75.0328 101.025 76.2715 99.733 77.4279C97.1654 79.8176 94.424 82.0236 91.53 84.0287C88.0914 86.4748 87.7326 86.4942 82.1111 90.2217C78.8752 92.2531 75.7542 94.4533 72.762 96.8127C70.0584 99.0548 67.5788 101.541 65.3565 104.238C64.1205 104.908 62.2268 105.627 60.7317 104.966C59.2366 104.306 59.0672 102.753 57.4027 98.6958C56.0073 95.2887 55.9674 96.007 54.0737 91.5806C52.9736 89.2389 52.0411 86.8258 51.2829 84.3587C51.1234 83.7277 49.2297 75.7583 53.2165 68.5655C54.9707 65.4107 57.1336 63.7217 61.4892 60.5087C74.4863 50.9086 79.5994 47.9674 86.5764 42.017C94.8391 34.9989 96.5435 31.582 97.3608 28.8447C97.9928 26.575 99.0673 21.462 98.3089 19.1668C97.5504 16.8717 94.7695 17.0812 95.0913 18.8043C95.5854 20.948 95.178 25.787 94.4006 29.0194C93.9221 31.0676 92.766 33.2419 87.9419 37.6295C80.3669 44.5408 76.9881 44.7641 66.7518 52.5296C64.7684 54.0245 65.7769 52.6461 56.1586 60.5087C50.9159 64.7992 50.2961 66.0029 48.9805 68.2937C46.6681 72.2832 46.2296 76.0439 46.2296 78.956C46.2097 82.4796 46.6183 86.8728 49.2197 90.872C50.4158 92.7164 51.2231 93.027 53.2165 96.8127C55.0505 100.249 55.5189 101.919 55.2698 102.132C55.0206 102.346 54.4624 102.346 49.4788 99.715L49.478 99.7146C47.7841 98.8219 46.9371 98.3754 46.2296 97.9581L46.1907 97.9351C41.3042 95.0468 35.3728 91.5409 30.651 83.8928L30.5912 83.7956C28.4483 80.2334 27.1317 76.2577 26.7339 72.1473C26.1957 66.5464 27.611 63.0617 26.0263 62.3142C25.5973 62.1488 25.1197 62.1488 24.6907 62.3142C23.8064 67.025 23.9963 71.8674 25.2467 76.4988C26.4972 81.1302 28.7777 85.4372 31.9268 89.1151C38.0078 96.2664 47.9917 101.816 52.4477 104.293L52.4889 104.316C54.582 105.471 57.8412 107.18 58.7383 110.393C59.1303 112.443 59.2709 114.532 59.1569 116.615C59.1171 119.012 58.8679 120.498 59.8646 121.468Z" fill="#A6416E" stroke="#231F20" stroke-width="0.220722" stroke-miterlimit="10"/>
</g>
</g>
<g id="hermit3">
<path id="shell top" d="M60.1552 86.4861C51.4828 98.7852 55.4905 112.372 58.5784 117.628C72.2966 91.9261 106.342 89.7054 121.651 91.8078C124.804 78.0108 96.2246 68.9442 91.8884 64.0167C87.5522 59.0892 84.0044 55.1471 80.6537 60.8631C77.303 66.579 70.9958 71.1123 60.1552 86.4861Z" fill="#C26B7A" stroke="#2E1845" stroke-width="0.220722"/>
<g id="shell bottom">
<path id="Vector 27" d="M52.8625 125.118C53.8481 130.045 53.2567 141.083 58.5784 151.135C65.4112 155.603 82.7035 164.617 97.2101 164.932C111.717 165.247 130.849 153.632 138.601 147.784C137.616 140.492 145.5 129.454 146.288 123.935C147.076 118.416 133.279 97.5237 129.929 91.8078C126.578 86.0919 110.022 83.7267 100.758 82.9383C91.4942 82.1499 66.0682 91.4136 62.7175 97.5237C59.3668 103.634 51.877 120.19 52.8625 125.118Z" fill="#A6416E" stroke="#2E1845" stroke-width="0.220722"/>
<path id="Vector 31" d="M64.8289 131.778C65.579 135.881 65.1289 145.073 69.1796 153.444C74.3804 157.164 87.5427 164.671 98.5845 164.933C109.626 165.196 124.189 155.523 130.09 150.653C129.34 144.58 135.341 135.389 135.941 130.793C136.541 126.197 126.039 108.799 123.489 104.039C120.938 99.2792 108.336 97.3096 101.285 96.6531C94.2338 95.9966 74.8805 103.711 72.3301 108.799C69.7797 113.887 64.0787 127.675 64.8289 131.778Z" fill="#6C3F69" stroke="#2E1845" stroke-width="0.220722"/>
</g>
<g id="right leg back">
<path id="Vector 20" d="M116.396 157.975C113.5 159.395 111.119 157.383 110.291 156.2C109.039 154.939 111.356 151.87 113.343 150.522C115.331 149.173 117.176 151.019 119.235 152.864C121.293 154.71 120.016 156.2 116.396 157.975Z" fill="#D58A62" stroke="#2E1845" stroke-width="0.220722"/>
<path id="Vector 25" d="M120.195 170.763C119.097 170.269 115.484 166.347 115.122 161.941C114.704 160.058 114.476 155.859 116.916 154.131C119.966 151.973 123.666 158.816 124.096 163.948C124.525 169.08 121.294 171.256 120.195 170.763Z" fill="#D58A62" stroke="#2E1845" stroke-width="0.220722"/>
</g>
<path id="left leg back" d="M86.8038 164.982C88.4088 163.756 89.717 161.708 89.8928 159.695C90.1269 159.351 90.7198 158.246 91.2182 156.584C91.8412 154.507 91.2246 153.265 88.4168 152.482C85.609 151.698 80.5691 159.855 80.0729 162.388C79.5767 164.921 81.6936 168.055 83.1356 168.28C84.5776 168.504 85.1987 166.207 86.8038 164.982Z" fill="#D58A62" stroke="#2E1845" stroke-width="0.220722"/>
<path id="back" d="M99.1506 160.101C114.008 159.89 116.581 150.793 116.01 146.271L84.7938 137.051C83.3889 144.822 84.2933 160.312 99.1506 160.101Z" fill="#D58A62" stroke="#2E1845" stroke-width="0.220722"/>
<path id="head" d="M80.4856 133.949C80.4856 120.155 89.452 113.258 107.04 113.085C114.972 113.085 131.18 117.913 131.18 132.053C131.18 146.192 113.42 150.33 107.902 150.33C102.384 150.33 80.4856 147.744 80.4856 133.949Z" fill="#FFC3A4" stroke="#2E1845" stroke-width="0.220722"/>
<path id="smile" d="M104.249 129.796C105.221 131.362 107.451 134.549 108.589 134.777C109.562 134.398 111.72 133.055 112.574 130.721" stroke="#2E1845" stroke-width="0.220722"/>
<g id="right eye">
<path id="Vector 29" d="M118.765 96.2354C110.457 98.8339 117.989 109.731 116.358 122.892L118.765 126.748C121.432 126.356 127.447 123.763 130.181 116.521C133.597 107.468 127.074 93.6368 118.765 96.2354Z" fill="#FFC3A4"/>
<path id="Vector 10" d="M116.431 122.892C118.061 109.731 110.529 98.8339 118.838 96.2354C127.147 93.6368 133.67 107.468 130.253 116.521C127.52 123.763 121.504 126.356 118.838 126.748" stroke="#553856" stroke-width="0.220722"/>
<path id="Vector 4" d="M121.481 94.0852C114.061 94.0852 112.67 117.644 123.614 117.644C134.559 117.644 130.571 94.0852 121.481 94.0852Z" fill="#2E1845"/>
<path id="Vector 7" d="M120.73 97.2738C123.236 94.7684 125.98 100.018 123.355 102.643C120.73 105.267 118.106 99.8985 120.73 97.2738Z" fill="white"/>
</g>
<g id="left eye">
<path id="Vector 30" d="M96.8276 96.2354C105.797 98.8339 97.6659 109.731 99.4262 122.892L96.8276 126.748C93.9496 126.356 87.456 123.763 84.5054 116.521C80.8171 107.468 87.8584 93.6368 96.8276 96.2354Z" fill="#FFC3A4"/>
<path id="Vector 5" d="M96.9428 94.285C88.0943 94.285 79.0755 109.26 88.5197 116.066C97.9638 122.873 105.366 94.285 96.9428 94.285Z" fill="#2E1845"/>
<path id="Vector 6" d="M96.7251 96.3938C94.5067 94.1754 90.6663 98.4452 93.2902 101.069C95.914 103.693 99.2774 98.9461 96.7251 96.3938Z" fill="white"/>
<path id="Vector 9" d="M99.4262 122.892C97.6659 109.731 105.797 98.8339 96.8276 96.2354C87.8584 93.6368 80.8171 107.468 84.5054 116.521C87.456 123.763 93.9496 126.356 96.8276 126.748" stroke="#2E1845" stroke-width="0.220722"/>
</g>
<g id="left leg">
<path id="Vector 12" d="M67.0482 164.702C55.0695 160.593 54.2129 144.084 63.5491 134.748C70.8046 127.352 83.8359 138.296 86.2841 147.127C88.7323 155.958 79.0269 168.812 67.0482 164.702Z" fill="#FFC3A4" stroke="#2E1845" stroke-width="0.220722"/>
<path id="Vector 15" d="M78.1508 167.005C72.1027 164.961 67.6075 160.875 73.0018 154.091C74.4887 151.846 79.1317 150.985 82.6461 153.274C86.1606 155.562 85.9154 158.75 87.4683 164.308C89.0212 169.865 84.199 169.048 78.1508 167.005Z" fill="#FFC3A4" stroke="#2E1845" stroke-width="0.220722"/>
</g>
<g id="right arm">
<path id="Vector 13" d="M144.064 163.262C152.889 156.94 155.128 141.134 143.142 134.417C131.42 127.7 119.566 137.973 120.488 151.671C121.41 165.369 135.24 169.584 144.064 163.262Z" fill="#FFC3A4" stroke="#2E1845" stroke-width="0.220722"/>
<path id="Vector 16" d="M132.257 160.303C134.218 166.596 122.613 170.683 116.892 169.13C116.565 169.13 115.911 168.688 115.911 166.923C115.911 164.716 119.834 155.807 121.877 154.908C123.92 154.009 130.295 154.009 132.257 160.303Z" fill="#FFC3A4" stroke="#2E1845" stroke-width="0.220722"/>
</g>
</g>
</g>
</g>
</svg>
