<svg width="192" height="199" viewBox="0 0 192 199" fill="none" xmlns="http://www.w3.org/2000/svg">
<g id="hc2">
<g id="hermit draw SVG">
<g id="fills">
<path id="body" d="M76.6033 136.118C71.3697 136.828 67.9233 135.822 66.8544 135.231C63.0156 134.362 54.4142 128.536 50.5934 125.731L56.8776 113.163L95.459 110.532L91.5132 125.731C88.5416 128.898 81.3995 135.408 76.6033 136.118Z" fill="#D58A62"/>
<g id="left feet">
<path id="back" d="M13.8002 132.942C15.8809 127.324 33.3571 110.264 41.6792 109.848C47.1789 108.036 55.3488 109.848 53.7976 114.724C52.2465 119.6 38.0791 123.163 29.6122 123.163C24.9518 123.33 17.129 129.752 13.8002 132.942Z" fill="#D58A62"/>
<path id="middle" d="M15.0485 150.627C18.8767 133.15 36.9322 119.567 45.4814 114.961C74.3829 108.604 42.0443 135.439 36.0619 135.439C31.9008 135.605 20.3191 145.633 15.0485 150.627Z" fill="#FFC3A4"/>
<path id="front" d="M39.1329 130.118C39.1327 144.044 55.2019 154.31 63.2364 157.703C68.3251 155.292 66.9856 140.83 61.8972 128.243C56.8087 115.656 39.1331 112.71 39.1329 130.118Z" fill="#F9D5AE"/>
</g>
<g id="right feet">
<path id="back_2" d="M136.48 106.695C128.176 102.543 113.578 103.318 107.317 104.224C101.03 104.818 96.4521 106.695 96.4521 111.077C96.4521 115.458 132.286 122.265 142.905 122.265C148.046 122.463 160.864 134.375 166.631 140.306C164.406 131.904 146.859 111.885 136.48 106.695Z" fill="#D58A62"/>
<path id="middle_2" d="M131.424 112.492C125.529 107.059 110.473 107.339 103.682 108.157C96.1924 108.607 92.6965 113.567 94.5261 118.324C96.3556 123.081 119.225 122.898 128.679 126.652C133.881 128.502 145.873 150.06 151.22 160.608C152.809 151.361 138.793 119.283 131.424 112.492Z" fill="#FFC3A4"/>
<g id="front_2">
<path id="Vector 51" d="M81.9831 126.904C90.5531 108.157 111.175 110.032 123.226 118.602V128.511C123.226 136.813 121.619 142.973 118.138 145.383C114.656 147.794 113.049 158.774 108.497 160.113C103.944 161.452 104.479 171.094 99.391 172.968C95.3202 174.468 93.5884 178.057 93.2314 179.664C77.4304 168.148 73.4132 145.651 81.9831 126.904Z" fill="#F9D5AE"/>
<path id="Vector 52" d="M124.833 153.418C121.62 162.202 111.175 168.505 106.354 170.558C97.6993 174.603 92.935 168.261 94.3907 160.839C95.8465 153.418 117.199 106.708 126.44 125.833C129.654 134.135 128.851 142.437 124.833 153.418Z" fill="#F9D5AE"/>
</g>
</g>
<path id="face" d="M45.2926 108.157C41.811 103.337 41.5433 95.0345 56.2732 80.3048C53.0597 77.3589 56.2732 41.7397 67.789 41.7397C77.0017 41.7397 75.0199 64.5931 72.8775 76.0198C75.4485 74.7343 81.269 75.4842 83.8578 76.0198C84.3934 64.236 88.25 41.6862 99.391 45.7569C110.532 49.8277 102.962 72.449 97.7841 83.2508C100.909 83.6078 107.158 87.1073 107.158 98.2483C107.158 112.175 84.3934 120.477 69.6637 121.28C54.934 122.084 48.7743 112.978 45.2926 108.157Z" fill="#FFC3A4"/>
<g id="eyes">
<g id="right">
<path id="Vector 60" d="M103.956 65.5798C103.043 67.4617 102.986 67.7469 100.796 68.144C92.7017 65.9925 93.1969 53.1285 94.4701 46.8719C96.7894 42.9912 102.758 47.1028 104.298 50.7526C105.838 54.4024 104.868 63.6979 103.956 65.5798Z" fill="#2E1845"/>
<path id="Vector 67" d="M99.1457 54.8525C98.1353 53.4748 98.1354 50.6274 99.1457 48.6985C101.258 46.4941 103.003 52.6481 102.452 54.2096C101.901 55.771 100.156 56.2303 99.1457 54.8525Z" fill="white" stroke="white" stroke-width="0.704051"/>
</g>
<g id="left">
<path id="Vector 62" d="M71.8362 63.7681C64.9374 64.7977 63.6417 51.7552 63.8562 45.1053C64.6565 43.1704 67.6532 40.763 70.9244 42.9733C74.1956 45.1835 74.5493 58.5336 74.6377 61.3627C74.7084 63.626 72.7995 63.9093 71.8362 63.7681Z" fill="#2E1845"/>
<path id="Vector 68" d="M68.3142 51.1304C67.3038 49.7526 67.3039 46.9052 68.3142 44.9763C70.4267 42.7719 72.1719 48.9259 71.6208 50.4874C71.0697 52.0489 69.3246 52.5081 68.3142 51.1304Z" fill="white" stroke="white" stroke-width="0.704051"/>
</g>
</g>
</g>
<g id="line drawings">
<path id="body_2" d="M66.8542 135.23C67.9231 135.822 71.3695 136.828 76.6031 136.118" stroke="black" stroke-width="0.704051"/>
<path id="head" d="M45.2926 108.157C41.811 103.337 41.5433 95.0344 56.2732 80.3047C53.0597 77.3588 56.2732 41.7396 67.789 41.7396C77.0017 41.7396 75.0199 64.593 72.8775 76.0197C75.4485 74.7342 81.269 75.4841 83.8578 76.0197C84.3934 64.2359 88.25 41.6861 99.391 45.7568C110.532 49.8276 102.962 72.4489 97.7841 83.2507C100.909 83.6078 107.158 87.1072 107.158 98.2482C107.158 112.174 84.3934 120.477 69.6637 121.28C54.934 122.084 48.7743 112.978 45.2926 108.157Z" stroke="black" stroke-width="0.704051"/>
<g id="left feet_2">
<path id="back_3" d="M41.6792 109.848C33.3571 110.264 15.8809 127.324 13.8002 132.942C17.129 129.752 24.9517 123.33 29.6122 123.163" stroke="black" stroke-width="0.704051"/>
<path id="middle_3" d="M45.4814 114.961C36.9322 119.567 18.8767 133.15 15.0485 150.626C20.3191 145.633 31.9008 135.605 36.0619 135.438" stroke="black" stroke-width="0.704051"/>
<path id="front_3" d="M39.1329 130.118C39.1327 144.044 55.2019 154.31 63.2364 157.703C68.3251 155.292 66.9856 140.83 61.8972 128.243C56.8087 115.656 39.1331 112.71 39.1329 130.118Z" stroke="black" stroke-width="0.704051"/>
</g>
<g id="right feet_2">
<g id="front_4">
<path id="Vector 51_2" d="M81.9831 126.904C90.5531 108.157 111.175 110.032 123.226 118.602V128.511C123.226 136.813 121.619 142.973 118.138 145.383C114.656 147.794 113.049 158.774 108.497 160.113C103.944 161.452 104.479 171.093 99.391 172.968C95.3202 174.468 93.5884 178.057 93.2314 179.663C77.4304 168.147 73.4132 145.651 81.9831 126.904Z" stroke="black" stroke-width="0.704051"/>
<path id="Vector 52_2" d="M106.354 170.558C111.175 168.505 121.62 162.202 124.833 153.418C128.85 142.437 129.654 134.135 126.44 125.833" stroke="black" stroke-width="0.704051"/>
</g>
<path id="middle_4" d="M103.682 108.157C110.473 107.338 125.529 107.059 131.425 112.492C138.794 119.283 152.809 151.361 151.22 160.608C145.874 150.06 133.881 128.502 128.679 126.652" stroke="black" stroke-width="0.704051"/>
<path id="back_4" d="M107.317 104.224C113.578 103.318 128.176 102.543 136.48 106.695C146.86 111.885 164.406 131.904 166.631 140.306C160.864 134.375 148.046 122.463 142.905 122.265" stroke="black" stroke-width="0.704051"/>
</g>
<g id="eyes_2">
<path id="left eye" d="M63.8562 45.1052C63.6417 51.7552 64.9374 64.7977 71.8362 63.7681" stroke="black" stroke-width="0.704051"/>
<path id="right eye" d="M94.4892 46.7785C93.202 52.9994 92.6611 65.9819 100.796 68.1442" stroke="black" stroke-width="0.704051"/>
</g>
<path id="smile" d="M69.848 96.6764L79.427 101.16L87.3752 94.6384" stroke="#2E1845" stroke-width="0.704051"/>
</g>
</g>
</g>
</svg>
