<svg width="1440" height="115" viewBox="0 0 1440 115" fill="none" xmlns="http://www.w3.org/2000/svg">
<g id="wave">
<path d="M1553.3 62.1932C1542.97 64.1932 1515.6 59.9932 1488.8 27.1932C1462 -5.60676 1437.97 0.193238 1429.3 7.19324C1425.97 9.19324 1417.7 16.7932 1411.3 31.1932C1416.47 27.6932 1428.4 23.1932 1434.8 33.1932C1441.2 43.1932 1437.47 55.0266 1434.8 59.6932C1430.47 65.8599 1417.5 76.5932 1400.3 70.1932C1383.1 63.7932 1373.47 51.1932 1370.8 45.6932C1364.64 35.8599 1350.3 14.6932 1342.3 8.69324C1334.3 2.69324 1323.3 0.526569 1318.8 0.193235C1307.64 -0.973431 1284.4 2.59324 1280.8 26.1932C1287.47 21.3599 1302.3 15.0932 1308.3 28.6932C1314.3 42.2932 1304.47 55.0266 1300.3 59.6932C1292.64 65.5266 1275.6 72.5932 1256.8 54.1932C1249.64 48.1932 1232.2 32.2932 1219.8 16.6932C1207.4 1.09324 1184.97 0.193237 1175.3 1.69324C1165.47 2.19324 1146 8.29324 1146.8 28.6932C1153.97 25.6932 1168.6 24.1932 1169.8 42.1932C1170.55 53.352 1163.64 59.3225 1156.02 62.249V114.193H1553.3V62.1932Z" fill="#FFC3A4"/>
<path d="M763.185 62.1932C752.852 64.1932 725.485 59.9932 698.685 27.1932C671.885 -5.60676 647.852 0.193238 639.185 7.19324C635.852 9.19324 627.585 16.7932 621.185 31.1932C626.352 27.6932 638.285 23.1932 644.685 33.1932C651.085 43.1932 647.352 55.0266 644.685 59.6932C640.352 65.8599 627.385 76.5932 610.185 70.1932C592.985 63.7932 583.352 51.1932 580.685 45.6932C574.518 35.8599 560.185 14.6932 552.185 8.69324C544.185 2.69324 533.185 0.526569 528.685 0.193235C517.518 -0.973431 494.285 2.59324 490.685 26.1932C497.352 21.3599 512.185 15.0932 518.185 28.6932C524.185 42.2932 514.352 55.0266 510.185 59.6932C502.518 65.5266 485.485 72.5932 466.685 54.1932C459.518 48.1932 442.085 32.2932 429.685 16.6932C417.285 1.09324 394.852 0.193237 385.185 1.69324C375.352 2.19324 355.885 8.29324 356.685 28.6932C363.852 25.6932 378.485 24.1932 379.685 42.1932C380.429 53.352 373.525 59.3225 365.906 62.249V114.193H763.185V62.1932Z" fill="#FFC3A4"/>
<path d="M1156.64 62.1932C1146.31 64.1932 1118.94 59.9932 1092.14 27.1932C1065.34 -5.60676 1041.31 0.193238 1032.64 7.19324C1029.31 9.19324 1021.04 16.7932 1014.64 31.1932C1019.81 27.6932 1031.74 23.1932 1038.14 33.1932C1044.54 43.1932 1040.81 55.0266 1038.14 59.6932C1033.81 65.8599 1020.84 76.5932 1003.64 70.1932C986.442 63.7932 976.809 51.1932 974.142 45.6932C967.975 35.8599 953.642 14.6932 945.642 8.69324C937.642 2.69324 926.642 0.526569 922.142 0.193235C910.975 -0.973431 887.742 2.59324 884.142 26.1932C890.809 21.3599 905.642 15.0932 911.642 28.6932C917.642 42.2932 907.809 55.0266 903.642 59.6932C895.975 65.5266 878.942 72.5932 860.142 54.1932C852.975 48.1932 835.542 32.2932 823.142 16.6932C810.742 1.09324 788.309 0.193237 778.642 1.69324C768.809 2.19324 749.342 8.29324 750.142 28.6932C757.309 25.6932 771.942 24.1932 773.142 42.1932C773.886 53.352 766.982 59.3225 759.363 62.249V114.193H1156.64V62.1932Z" fill="#FFC3A4"/>
<path d="M366.524 62.1932C356.191 64.1932 328.824 59.9932 302.024 27.1932C275.224 -5.60676 251.191 0.193238 242.524 7.19324C239.191 9.19324 230.924 16.7932 224.524 31.1932C229.691 27.6932 241.624 23.1932 248.024 33.1932C254.424 43.1932 250.691 55.0266 248.024 59.6932C243.691 65.8599 230.724 76.5932 213.524 70.1932C196.324 63.7932 186.691 51.1932 184.024 45.6932C177.857 35.8599 163.524 14.6932 155.524 8.69324C147.524 2.69324 136.524 0.526569 132.024 0.193235C120.857 -0.973431 97.6239 2.59324 94.0239 26.1932C100.691 21.3599 115.524 15.0932 121.524 28.6932C127.524 42.2932 117.691 55.0266 113.524 59.6932C105.857 65.5266 88.8239 72.5932 70.0239 54.1932C62.8573 48.1932 45.4239 32.2932 33.0239 16.6932C20.6239 1.09324 -1.80942 0.193237 -11.4761 1.69324C-21.3094 2.19324 -40.7761 8.29324 -39.9761 28.6932C-32.8094 25.6932 -18.1761 24.1932 -16.9761 42.1932C-16.2321 53.352 -23.1361 59.3225 -30.7549 62.249V114.193H366.524V62.1932Z" fill="#FFC3A4"/>
</g>
</svg>
