<svg width="375" height="28" viewBox="0 0 375 28" fill="none" xmlns="http://www.w3.org/2000/svg">
<g id="pinkWaveGroup">
<path d="M93.5036 15.371V27.5965H108.854L0 27.5966V15.3579C2.43205 15.8286 8.87308 14.8401 15.1807 7.1203C21.4884 -0.599515 27.1449 0.765573 29.1847 2.41309C29.9692 2.88381 31.9148 4.67255 33.4211 8.06174C32.2051 7.23798 29.3965 6.17885 27.8902 8.53246C26.3839 10.8861 27.2625 13.6712 27.8902 14.7695C28.9101 16.2209 31.9619 18.7471 36.0101 17.2408C40.0583 15.7345 42.3256 12.7689 42.9532 11.4745C44.4046 9.16008 47.7781 4.17829 49.661 2.76613C51.5439 1.35397 54.1328 0.844026 55.1919 0.765573C57.8201 0.490986 63.2883 1.33044 64.1356 6.88494C62.5666 5.74736 59.0754 4.27244 57.6632 7.47334C56.2511 10.6742 58.5654 13.6712 59.5461 14.7695C61.3505 16.1424 65.3595 17.8056 69.7843 13.475C71.471 12.0629 75.5741 8.32063 78.4926 4.64901C81.4111 0.977397 86.691 0.765573 88.9661 1.11861C91.2805 1.23629 95.8622 2.67199 95.6739 7.47334C93.9871 6.76726 90.543 6.41422 90.2606 10.6507C90.0855 13.277 91.7104 14.6822 93.5036 15.371Z" fill="#C26B7A"/>
<path d="M279.466 15.371V27.5965H294.816L185.962 27.5966V15.3579C188.394 15.8286 194.835 14.8401 201.143 7.1203C207.451 -0.599515 213.107 0.765573 215.147 2.41309C215.931 2.88381 217.877 4.67255 219.383 8.06174C218.167 7.23798 215.359 6.17885 213.852 8.53246C212.346 10.8861 213.225 13.6712 213.852 14.7695C214.872 16.2209 217.924 18.7471 221.972 17.2408C226.021 15.7345 228.288 12.7689 228.915 11.4745C230.367 9.16008 233.74 4.17829 235.623 2.76613C237.506 1.35397 240.095 0.844026 241.154 0.765573C243.782 0.490986 249.251 1.33044 250.098 6.88494C248.529 5.74736 245.038 4.27244 243.625 7.47334C242.213 10.6742 244.528 13.6712 245.508 14.7695C247.313 16.1424 251.322 17.8056 255.747 13.475C257.433 12.0629 261.536 8.32063 264.455 4.64901C267.373 0.977397 272.653 0.765573 274.928 1.11861C277.243 1.23629 281.824 2.67199 281.636 7.47334C279.949 6.76726 276.505 6.41422 276.223 10.6507C276.048 13.277 277.673 14.6822 279.466 15.371Z" fill="#C26B7A"/>
<path d="M186.862 15.371V27.5965H202.212L93.3582 27.5966V15.3579C95.7902 15.8286 102.231 14.8401 108.539 7.1203C114.847 -0.599515 120.503 0.765573 122.543 2.41309C123.327 2.88381 125.273 4.67255 126.779 8.06174C125.563 7.23798 122.755 6.17885 121.248 8.53246C119.742 10.8861 120.621 13.6712 121.248 14.7695C122.268 16.2209 125.32 18.7471 129.368 17.2408C133.416 15.7345 135.684 12.7689 136.311 11.4745C137.763 9.16008 141.136 4.17829 143.019 2.76613C144.902 1.35397 147.491 0.844026 148.55 0.765573C151.178 0.490986 156.647 1.33044 157.494 6.88494C155.925 5.74736 152.434 4.27244 151.021 7.47334C149.609 10.6742 151.924 13.6712 152.904 14.7695C154.709 16.1424 158.718 17.8056 163.142 13.475C164.829 12.0629 168.932 8.32063 171.851 4.64901C174.769 0.977397 180.049 0.765573 182.324 1.11861C184.639 1.23629 189.22 2.67199 189.032 7.47334C187.345 6.76726 183.901 6.41422 183.619 10.6507C183.444 13.277 185.069 14.6823 186.862 15.371Z" fill="#C26B7A"/>
<path d="M279.32 15.3579C281.753 15.8286 288.194 14.8401 294.501 7.1203C300.809 -0.599515 306.465 0.765573 308.505 2.41309C309.29 2.88381 311.235 4.67255 312.742 8.06174C311.526 7.23798 308.717 6.17885 307.211 8.53246C305.704 10.8861 306.583 13.6712 307.211 14.7695C308.231 16.2209 311.282 18.7471 315.331 17.2408C319.379 15.7345 321.646 12.7689 322.274 11.4745C323.725 9.16008 327.099 4.17829 328.981 2.76613C330.864 1.35397 333.453 0.844026 334.512 0.765573C337.141 0.490986 342.609 1.33044 343.456 6.88494C341.887 5.74736 338.396 4.27244 336.984 7.47334C335.572 10.6742 337.886 13.6712 338.867 14.7695C340.671 16.1424 344.68 17.8056 349.105 13.475C350.791 12.0629 354.895 8.32063 357.813 4.64901C360.732 0.977397 366.011 0.765573 368.287 1.11861C370.601 1.23629 375.183 2.67199 374.994 7.47334C373.308 6.76726 369.863 6.41422 369.581 10.6507C369.406 13.2771 371.031 14.6823 372.824 15.3711V27.5966H279.32V15.3579Z" fill="#C26B7A"/>
</g>
</svg>
