<svg width="1440" height="115" viewBox="0 0 1440 115" fill="none" xmlns="http://www.w3.org/2000/svg">
<g id="wave">
<path d="M-40 62.6932C-29.6667 64.6932 -2.3 60.4932 24.5 27.6932C51.3 -5.10676 75.3333 0.693238 84 7.69324C87.3333 9.69324 95.6 17.2932 102 31.6932C96.8333 28.1932 84.9 23.6932 78.5 33.6932C72.1 43.6932 75.8333 55.5266 78.5 60.1932C82.8333 66.3599 95.8 77.0932 113 70.6932C130.2 64.2932 139.833 51.6932 142.5 46.1932C148.667 36.3599 163 15.1932 171 9.19324C179 3.19324 190 1.02657 194.5 0.693235C205.667 -0.473431 228.9 3.09324 232.5 26.6932C225.833 21.8599 211 15.5932 205 29.1932C199 42.7932 208.833 55.5266 213 60.1932C220.667 66.0266 237.7 73.0932 256.5 54.6932C263.667 48.6932 281.1 32.7932 293.5 17.1932C305.9 1.59324 328.333 0.693237 338 2.19324C347.833 2.69324 367.3 8.79324 366.5 29.1932C359.333 26.1932 344.7 24.6932 343.5 42.6932C342.756 53.852 349.66 59.8225 357.279 62.749V114.693H-40V62.6932Z" fill="#C26B7A"/>
<path d="M750.118 62.6932C760.451 64.6932 787.818 60.4932 814.618 27.6932C841.418 -5.10676 865.451 0.693238 874.118 7.69324C877.451 9.69324 885.718 17.2932 892.118 31.6932C886.951 28.1932 875.018 23.6932 868.618 33.6932C862.218 43.6932 865.951 55.5266 868.618 60.1932C872.951 66.3599 885.918 77.0932 903.118 70.6932C920.318 64.2932 929.951 51.6932 932.618 46.1932C938.785 36.3599 953.118 15.1932 961.118 9.19324C969.118 3.19324 980.118 1.02657 984.618 0.693235C995.785 -0.473431 1019.02 3.09324 1022.62 26.6932C1015.95 21.8599 1001.12 15.5932 995.118 29.1932C989.118 42.7932 998.951 55.5266 1003.12 60.1932C1010.78 66.0266 1027.82 73.0932 1046.62 54.6932C1053.78 48.6932 1071.22 32.7932 1083.62 17.1932C1096.02 1.59324 1118.45 0.693237 1128.12 2.19324C1137.95 2.69324 1157.42 8.79324 1156.62 29.1932C1149.45 26.1932 1134.82 24.6932 1133.62 42.6932C1132.87 53.852 1139.78 59.8225 1147.4 62.749V114.693H750.118V62.6932Z" fill="#C26B7A"/>
<path d="M356.661 62.6932C366.994 64.6932 394.361 60.4932 421.161 27.6932C447.961 -5.10676 471.994 0.693238 480.661 7.69324C483.994 9.69324 492.261 17.2932 498.661 31.6932C493.494 28.1932 481.561 23.6932 475.161 33.6932C468.761 43.6932 472.494 55.5266 475.161 60.1932C479.494 66.3599 492.461 77.0932 509.661 70.6932C526.861 64.2932 536.494 51.6932 539.161 46.1932C545.328 36.3599 559.661 15.1932 567.661 9.19324C575.661 3.19324 586.661 1.02657 591.161 0.693235C602.328 -0.473431 625.561 3.09324 629.161 26.6932C622.494 21.8599 607.661 15.5932 601.661 29.1932C595.661 42.7932 605.494 55.5266 609.661 60.1932C617.328 66.0266 634.361 73.0932 653.161 54.6932C660.328 48.6932 677.761 32.7932 690.161 17.1932C702.561 1.59324 724.994 0.693237 734.661 2.19324C744.494 2.69324 763.961 8.79324 763.161 29.1932C755.994 26.1932 741.361 24.6932 740.161 42.6932C739.417 53.852 746.321 59.8225 753.94 62.749V114.693H356.661V62.6932Z" fill="#C26B7A"/>
<path d="M1146.78 62.6932C1157.11 64.6932 1184.48 60.4932 1211.28 27.6932C1238.08 -5.10676 1262.11 0.693238 1270.78 7.69324C1274.11 9.69324 1282.38 17.2932 1288.78 31.6932C1283.61 28.1932 1271.68 23.6932 1265.28 33.6932C1258.88 43.6932 1262.61 55.5266 1265.28 60.1932C1269.61 66.3599 1282.58 77.0932 1299.78 70.6932C1316.98 64.2932 1326.61 51.6932 1329.28 46.1932C1335.45 36.3599 1349.78 15.1932 1357.78 9.19324C1365.78 3.19324 1376.78 1.02657 1381.28 0.693235C1392.45 -0.473431 1415.68 3.09324 1419.28 26.6932C1412.61 21.8599 1397.78 15.5932 1391.78 29.1932C1385.78 42.7932 1395.61 55.5266 1399.78 60.1932C1407.45 66.0266 1424.48 73.0932 1443.28 54.6932C1450.45 48.6932 1467.88 32.7932 1480.28 17.1932C1492.68 1.59324 1515.11 0.693237 1524.78 2.19324C1534.61 2.69324 1554.08 8.79324 1553.28 29.1932C1546.11 26.1932 1531.48 24.6932 1530.28 42.6932C1529.54 53.852 1536.44 59.8225 1544.06 62.749V114.693H1146.78V62.6932Z" fill="#C26B7A"/>
</g>
</svg>
