<svg width="375" height="28" viewBox="0 0 375 28" fill="none" xmlns="http://www.w3.org/2000/svg">
<g id="wave">
<path d="M94.0584 14.7709V27.0965H109.534L-0.210693 27.0966V14.7576C2.24127 15.2322 8.73502 14.2356 15.0943 6.4526C21.4536 -1.33041 27.1564 0.0458529 29.2129 1.70686C30.0038 2.18143 31.9654 3.98481 33.484 7.40175C32.2581 6.57124 29.4264 5.50345 27.9078 7.87632C26.3892 10.2492 27.275 13.0571 27.9078 14.1644C28.936 15.6277 32.0129 18.1746 36.0942 16.6559C40.1755 15.1373 42.4614 12.1475 43.0942 10.8424C44.5574 8.50908 47.9585 3.48651 49.8568 2.06279C51.7551 0.639069 54.3653 0.124948 55.4331 0.0458522C58.0828 -0.230983 63.5958 0.615341 64.45 6.21531C62.8681 5.06843 59.3483 3.58143 57.9246 6.80853C56.5009 10.0356 58.8342 13.0571 59.8229 14.1644C61.6421 15.5486 65.6839 17.2254 70.1449 12.8593C71.8454 11.4356 75.9821 7.66276 78.9245 3.96109C81.8668 0.259411 87.19 0.0458527 89.4837 0.401783C91.8171 0.520426 96.4363 1.96788 96.2464 6.80853C94.5459 6.09667 91.0736 5.74074 90.7888 10.0119C90.6123 12.6597 92.2505 14.0765 94.0584 14.7709Z" fill="#A6416E"/>
<path d="M187.274 14.7576C189.726 15.2322 196.22 14.2356 202.579 6.4526C208.938 -1.33041 214.641 0.0458529 216.698 1.70686C217.489 2.18143 219.45 3.98481 220.969 7.40175C219.743 6.57124 216.911 5.50345 215.392 7.87632C213.874 10.2492 214.76 13.0571 215.392 14.1644C216.421 15.6277 219.498 18.1746 223.579 16.6559C227.66 15.1373 229.946 12.1475 230.579 10.8424C232.042 8.50908 235.443 3.48651 237.342 2.06279C239.24 0.639069 241.85 0.124948 242.918 0.0458522C245.567 -0.230983 251.08 0.615341 251.935 6.21531C250.353 5.06843 246.833 3.58143 245.409 6.80853C243.986 10.0356 246.319 13.0571 247.308 14.1644C249.127 15.5486 253.169 17.2254 257.63 12.8593C259.33 11.4356 263.467 7.66276 266.409 3.96109C269.352 0.259411 274.675 0.0458527 276.968 0.401783C279.302 0.520426 283.921 1.96788 283.731 6.80853C282.031 6.09667 278.558 5.74074 278.273 10.0119C278.097 12.6598 279.735 14.0765 281.543 14.7709V27.0966L187.274 27.0966V14.7576Z" fill="#A6416E"/>
<path d="M93.9118 14.7576C96.3638 15.2322 102.858 14.2356 109.217 6.4526C115.576 -1.33041 121.279 0.0458529 123.335 1.70686C124.126 2.18143 126.088 3.98481 127.607 7.40175C126.381 6.57124 123.549 5.50345 122.03 7.87632C120.512 10.2492 121.398 13.0571 122.03 14.1644C123.059 15.6277 126.135 18.1746 130.217 16.6559C134.298 15.1373 136.584 12.1475 137.217 10.8424C138.68 8.50908 142.081 3.48651 143.979 2.06279C145.878 0.639069 148.488 0.124948 149.556 0.0458522C152.205 -0.230983 157.718 0.615341 158.572 6.21531C156.991 5.06843 153.471 3.58143 152.047 6.80853C150.623 10.0356 152.957 13.0571 153.945 14.1644C155.765 15.5486 159.806 17.2254 164.267 12.8593C165.968 11.4356 170.105 7.66276 173.047 3.96109C175.989 0.259411 181.312 0.0458527 183.606 0.401783C185.94 0.520426 190.559 1.96788 190.369 6.80853C188.668 6.09667 185.196 5.74074 184.911 10.0119C184.735 12.6597 186.373 14.0765 188.181 14.7709V27.0966L93.9118 27.0966V14.7576Z" fill="#A6416E"/>
<path d="M281.396 14.7576C283.848 15.2322 290.342 14.2356 296.701 6.4526C303.061 -1.33041 308.764 0.0458529 310.82 1.70686C311.611 2.18143 313.573 3.98481 315.091 7.40175C313.865 6.57124 311.034 5.50345 309.515 7.87632C307.996 10.2492 308.882 13.0571 309.515 14.1644C310.543 15.6277 313.62 18.1746 317.701 16.6559C321.783 15.1373 324.069 12.1475 324.701 10.8424C326.165 8.50908 329.566 3.48651 331.464 2.06279C333.362 0.639069 335.972 0.124948 337.04 0.0458522C339.69 -0.230983 345.203 0.615341 346.057 6.21531C344.475 5.06843 340.955 3.58143 339.532 6.80853C338.108 10.0356 340.441 13.0571 341.43 14.1644C343.249 15.5486 347.291 17.2254 351.752 12.8593C353.453 11.4356 357.589 7.66276 360.532 3.96109C363.474 0.259411 368.797 0.0458527 371.091 0.401783C373.424 0.520426 378.043 1.96788 377.854 6.80853C376.153 6.09667 372.681 5.74074 372.396 10.0119C372.219 12.6597 373.858 14.0764 375.666 14.7709V27.0966L281.396 27.0966V14.7576Z" fill="#A6416E"/>
</g>
</svg>
