<svg width="1440" height="116" viewBox="0 0 1440 116" fill="none" xmlns="http://www.w3.org/2000/svg">
<g id="wave">
<path d="M1553.3 63.0966C1542.97 65.0966 1515.6 60.8966 1488.8 28.0966C1462 -4.70344 1437.97 1.09656 1429.3 8.09656C1425.97 10.0966 1417.7 17.6966 1411.3 32.0966C1416.47 28.5966 1428.4 24.0966 1434.8 34.0966C1441.2 44.0966 1437.47 55.9299 1434.8 60.5966C1430.47 66.7632 1417.5 77.4966 1400.3 71.0966C1383.1 64.6966 1373.47 52.0966 1370.8 46.5966C1364.64 36.7632 1350.3 15.5966 1342.3 9.59656C1334.3 3.59656 1323.3 1.42989 1318.8 1.09656C1307.64 -0.0701111 1284.4 3.49656 1280.8 27.0966C1287.47 22.2632 1302.3 15.9966 1308.3 29.5966C1314.3 43.1966 1304.47 55.9299 1300.3 60.5966C1292.64 66.4299 1275.6 73.4966 1256.8 55.0966C1249.64 49.0966 1232.2 33.1966 1219.8 17.5966C1207.4 1.99656 1184.97 1.09656 1175.3 2.59656C1165.47 3.09656 1146 9.19656 1146.8 29.5966C1153.97 26.5966 1168.6 25.0966 1169.8 43.0966C1170.55 54.2553 1163.64 60.2258 1156.02 63.1523V115.097H1553.3V63.0966Z" fill="#A6416E"/>
<path d="M763.185 63.0966C752.852 65.0966 725.485 60.8966 698.685 28.0966C671.885 -4.70344 647.852 1.09656 639.185 8.09656C635.852 10.0966 627.585 17.6966 621.185 32.0966C626.352 28.5966 638.285 24.0966 644.685 34.0966C651.085 44.0966 647.352 55.9299 644.685 60.5966C640.352 66.7632 627.385 77.4966 610.185 71.0966C592.985 64.6966 583.352 52.0966 580.685 46.5966C574.518 36.7632 560.185 15.5966 552.185 9.59656C544.185 3.59656 533.185 1.42989 528.685 1.09656C517.518 -0.0701111 494.285 3.49656 490.685 27.0966C497.352 22.2632 512.185 15.9966 518.185 29.5966C524.185 43.1966 514.352 55.9299 510.185 60.5966C502.518 66.4299 485.485 73.4966 466.685 55.0966C459.518 49.0966 442.085 33.1966 429.685 17.5966C417.285 1.99656 394.852 1.09656 385.185 2.59656C375.352 3.09656 355.885 9.19656 356.685 29.5966C363.852 26.5966 378.485 25.0966 379.685 43.0966C380.429 54.2553 373.525 60.2258 365.906 63.1523V115.097H763.185V63.0966Z" fill="#A6416E"/>
<path d="M1156.64 63.0966C1146.31 65.0966 1118.94 60.8966 1092.14 28.0966C1065.34 -4.70344 1041.31 1.09656 1032.64 8.09656C1029.31 10.0966 1021.04 17.6966 1014.64 32.0966C1019.81 28.5966 1031.74 24.0966 1038.14 34.0966C1044.54 44.0966 1040.81 55.9299 1038.14 60.5966C1033.81 66.7632 1020.84 77.4966 1003.64 71.0966C986.442 64.6966 976.809 52.0966 974.142 46.5966C967.975 36.7632 953.642 15.5966 945.642 9.59656C937.642 3.59656 926.642 1.42989 922.142 1.09656C910.975 -0.0701111 887.742 3.49656 884.142 27.0966C890.809 22.2632 905.642 15.9966 911.642 29.5966C917.642 43.1966 907.809 55.9299 903.642 60.5966C895.975 66.4299 878.942 73.4966 860.142 55.0966C852.975 49.0966 835.542 33.1966 823.142 17.5966C810.742 1.99656 788.309 1.09656 778.642 2.59656C768.809 3.09656 749.342 9.19656 750.142 29.5966C757.309 26.5966 771.942 25.0966 773.142 43.0966C773.886 54.2553 766.982 60.2258 759.363 63.1523V115.097H1156.64V63.0966Z" fill="#A6416E"/>
<path d="M366.524 63.0966C356.191 65.0966 328.824 60.8966 302.024 28.0966C275.224 -4.70344 251.191 1.09656 242.524 8.09656C239.191 10.0966 230.924 17.6966 224.524 32.0966C229.691 28.5966 241.624 24.0966 248.024 34.0966C254.424 44.0966 250.691 55.9299 248.024 60.5966C243.691 66.7632 230.724 77.4966 213.524 71.0966C196.324 64.6966 186.691 52.0966 184.024 46.5966C177.857 36.7632 163.524 15.5966 155.524 9.59656C147.524 3.59656 136.524 1.42989 132.024 1.09656C120.857 -0.0701111 97.6239 3.49656 94.0239 27.0966C100.691 22.2632 115.524 15.9966 121.524 29.5966C127.524 43.1966 117.691 55.9299 113.524 60.5966C105.857 66.4299 88.8239 73.4966 70.0239 55.0966C62.8573 49.0966 45.4239 33.1966 33.0239 17.5966C20.6239 1.99656 -1.80942 1.09656 -11.4761 2.59656C-21.3094 3.09656 -40.7761 9.19656 -39.9761 29.5966C-32.8094 26.5966 -18.1761 25.0966 -16.9761 43.0966C-16.2321 54.2553 -23.1361 60.2258 -30.7549 63.1523V115.097H366.524V63.0966Z" fill="#A6416E"/>
</g>
</svg>
