<svg width="222" height="76" viewBox="0 0 222 76" fill="none" xmlns="http://www.w3.org/2000/svg">
<g id="search-icon">
<g id="search">
<mask id="path-1-outside-1_137_2" maskUnits="userSpaceOnUse" x="85.8423" y="5.61163" width="51" height="65" fill="black">
<rect fill="white" x="85.8423" y="5.61163" width="51" height="65"/>
<path fill-rule="evenodd" clip-rule="evenodd" d="M122.092 25.7365C122.092 34.6419 114.873 41.8613 105.967 41.8613C97.0616 41.8613 89.8423 34.6419 89.8423 25.7365C89.8423 16.831 97.0616 9.61163 105.967 9.61163C114.873 9.61163 122.092 16.831 122.092 25.7365ZM115.28 42.4447C112.524 43.984 109.348 44.8613 105.967 44.8613C95.4048 44.8613 86.8423 36.2988 86.8423 25.7365C86.8423 15.1741 95.4048 6.61163 105.967 6.61163C116.529 6.61163 125.092 15.1741 125.092 25.7365C125.092 31.8938 122.182 37.3716 117.662 40.8696L135.158 67.8337L132.762 69.3883L115.28 42.4447Z"/>
</mask>
<path fill-rule="evenodd" clip-rule="evenodd" d="M122.092 25.7365C122.092 34.6419 114.873 41.8613 105.967 41.8613C97.0616 41.8613 89.8423 34.6419 89.8423 25.7365C89.8423 16.831 97.0616 9.61163 105.967 9.61163C114.873 9.61163 122.092 16.831 122.092 25.7365ZM115.28 42.4447C112.524 43.984 109.348 44.8613 105.967 44.8613C95.4048 44.8613 86.8423 36.2988 86.8423 25.7365C86.8423 15.1741 95.4048 6.61163 105.967 6.61163C116.529 6.61163 125.092 15.1741 125.092 25.7365C125.092 31.8938 122.182 37.3716 117.662 40.8696L135.158 67.8337L132.762 69.3883L115.28 42.4447Z" fill="white"/>
<path d="M115.28 42.4447L116.119 41.9003C115.832 41.4586 115.252 41.3148 114.792 41.5716L115.28 42.4447ZM117.662 40.8696L117.05 40.0788C116.639 40.3971 116.541 40.9776 116.824 41.4139L117.662 40.8696ZM135.158 67.8337L135.702 68.6726C135.925 68.5283 136.081 68.3014 136.136 68.042C136.191 67.7826 136.141 67.5119 135.997 67.2894L135.158 67.8337ZM132.762 69.3883L131.923 69.9326C132.224 70.3959 132.843 70.5278 133.306 70.2272L132.762 69.3883ZM105.967 42.8613C115.425 42.8613 123.092 35.1942 123.092 25.7365H121.092C121.092 34.0897 114.32 40.8613 105.967 40.8613V42.8613ZM88.8423 25.7365C88.8423 35.1942 96.5093 42.8613 105.967 42.8613V40.8613C97.6139 40.8613 90.8423 34.0897 90.8423 25.7365H88.8423ZM105.967 8.61163C96.5093 8.61163 88.8423 16.2787 88.8423 25.7365H90.8423C90.8423 17.3832 97.6139 10.6116 105.967 10.6116V8.61163ZM123.092 25.7365C123.092 16.2787 115.425 8.61163 105.967 8.61163V10.6116C114.32 10.6116 121.092 17.3832 121.092 25.7365H123.092ZM105.967 45.8613C109.523 45.8613 112.866 44.9381 115.767 43.3177L114.792 41.5716C112.182 43.0299 109.173 43.8613 105.967 43.8613V45.8613ZM85.8423 25.7365C85.8423 36.8511 94.8525 45.8613 105.967 45.8613V43.8613C95.957 43.8613 87.8423 35.7465 87.8423 25.7365H85.8423ZM105.967 5.61163C94.8525 5.61163 85.8423 14.6218 85.8423 25.7365H87.8423C87.8423 15.7264 95.957 7.61163 105.967 7.61163V5.61163ZM126.092 25.7365C126.092 14.6218 117.082 5.61163 105.967 5.61163V7.61163C115.977 7.61163 124.092 15.7264 124.092 25.7365H126.092ZM118.275 41.6604C123.028 37.9812 126.092 32.2164 126.092 25.7365H124.092C124.092 31.5713 121.336 36.762 117.05 40.0788L118.275 41.6604ZM116.824 41.4139L134.319 68.378L135.997 67.2894L118.501 40.3253L116.824 41.4139ZM134.614 66.9949L132.218 68.5494L133.306 70.2272L135.702 68.6726L134.614 66.9949ZM133.601 68.844L116.119 41.9003L114.441 42.989L131.923 69.9326L133.601 68.844Z" fill="white" mask="url(#path-1-outside-1_137_2)"/>
</g>
</g>
</svg>
