<svg width="329" height="97" viewBox="0 0 329 97" fill="none" xmlns="http://www.w3.org/2000/svg">
<g id="search-icon">
<g id="search">
<mask id="path-1-outside-1_124_517" maskUnits="userSpaceOnUse" x="229.135" y="18.375" width="48" height="62" fill="black">
<rect fill="white" x="229.135" y="18.375" width="48" height="62"/>
<path fill-rule="evenodd" clip-rule="evenodd" d="M263.274 37.4446C263.274 45.7673 256.527 52.5142 248.205 52.5142C239.882 52.5142 233.135 45.7673 233.135 37.4446C233.135 29.1219 239.882 22.375 248.205 22.375C256.527 22.375 263.274 29.1219 263.274 37.4446ZM257.003 53.231C254.4 54.6854 251.399 55.5142 248.205 55.5142C238.225 55.5142 230.135 47.4242 230.135 37.4446C230.135 27.465 238.225 19.375 248.205 19.375C258.184 19.375 266.274 27.465 266.274 37.4446C266.274 43.2623 263.525 48.4379 259.255 51.7429L275.785 77.2195L273.521 78.6883L257.003 53.231Z"/>
</mask>
<path fill-rule="evenodd" clip-rule="evenodd" d="M263.274 37.4446C263.274 45.7673 256.527 52.5142 248.205 52.5142C239.882 52.5142 233.135 45.7673 233.135 37.4446C233.135 29.1219 239.882 22.375 248.205 22.375C256.527 22.375 263.274 29.1219 263.274 37.4446ZM257.003 53.231C254.4 54.6854 251.399 55.5142 248.205 55.5142C238.225 55.5142 230.135 47.4242 230.135 37.4446C230.135 27.465 238.225 19.375 248.205 19.375C258.184 19.375 266.274 27.465 266.274 37.4446C266.274 43.2623 263.525 48.4379 259.255 51.7429L275.785 77.2195L273.521 78.6883L257.003 53.231Z" fill="white"/>
<path d="M257.003 53.231L257.842 52.6867C257.556 52.2449 256.975 52.1012 256.516 52.358L257.003 53.231ZM259.255 51.7429L258.643 50.9521C258.231 51.2704 258.133 51.8509 258.416 52.2872L259.255 51.7429ZM275.785 77.2195L276.329 78.0584C276.792 77.7578 276.924 77.1385 276.624 76.6752L275.785 77.2195ZM273.521 78.6883L272.682 79.2326C272.826 79.4551 273.053 79.6111 273.313 79.6663C273.572 79.7216 273.843 79.6715 274.065 79.5272L273.521 78.6883ZM248.205 53.5142C257.08 53.5142 264.274 46.3196 264.274 37.4446H262.274C262.274 45.215 255.975 51.5142 248.205 51.5142V53.5142ZM232.135 37.4446C232.135 46.3196 239.33 53.5142 248.205 53.5142V51.5142C240.434 51.5142 234.135 45.215 234.135 37.4446H232.135ZM248.205 21.375C239.33 21.375 232.135 28.5696 232.135 37.4446H234.135C234.135 29.6742 240.434 23.375 248.205 23.375V21.375ZM264.274 37.4446C264.274 28.5696 257.08 21.375 248.205 21.375V23.375C255.975 23.375 262.274 29.6742 262.274 37.4446H264.274ZM248.205 56.5142C251.574 56.5142 254.742 55.6395 257.491 54.1041L256.516 52.358C254.057 53.7312 251.224 54.5142 248.205 54.5142V56.5142ZM229.135 37.4446C229.135 47.9764 237.673 56.5142 248.205 56.5142V54.5142C238.777 54.5142 231.135 46.8719 231.135 37.4446H229.135ZM248.205 18.375C237.673 18.375 229.135 26.9127 229.135 37.4446H231.135C231.135 28.0173 238.777 20.375 248.205 20.375V18.375ZM267.274 37.4446C267.274 26.9127 258.737 18.375 248.205 18.375V20.375C257.632 20.375 265.274 28.0173 265.274 37.4446H267.274ZM259.867 52.5337C264.371 49.0475 267.274 43.5848 267.274 37.4446H265.274C265.274 42.9398 262.679 47.8283 258.643 50.9521L259.867 52.5337ZM258.416 52.2872L274.946 77.7638L276.624 76.6752L260.093 51.1986L258.416 52.2872ZM275.24 76.3806L272.977 77.8494L274.065 79.5272L276.329 78.0584L275.24 76.3806ZM274.36 78.144L257.842 52.6867L256.164 53.7753L272.682 79.2326L274.36 78.144Z" fill="white" mask="url(#path-1-outside-1_124_517)"/>
</g>
</g>
</svg>
