<svg width="193" height="199" viewBox="0 0 193 199" fill="none" xmlns="http://www.w3.org/2000/svg">
<g id="shell3">
<g id="purple-shell-option">
<g id="shell">
<path id="Vector 59" d="M33.2422 148.443C24.6499 169.801 29.662 175.345 33.2422 175.448C50.6699 191.986 79.2183 184.02 99.5265 184.648C115.773 185.15 122.049 173.2 123.156 167.162C127.145 158.876 121.008 140.157 126.224 132.179C131.441 124.2 127.452 104.253 132.362 92.2852C137.272 80.3172 155.07 16.7946 147.092 12.1916C139.113 7.58847 130.521 33.9795 119.166 44.1063C107.812 54.233 96.4578 72.9523 91.8547 84.6134C87.2517 96.2745 81.1142 99.957 77.4317 95.9677C73.7493 91.9783 102.288 37.6619 99.5265 33.9795C96.7647 30.297 68.8393 83.9996 61.4744 95.9677C54.1094 107.936 43.9825 121.745 33.2422 148.443Z" fill="#6C3F69"/>
<path id="Subtract" fill-rule="evenodd" clip-rule="evenodd" d="M53.3972 184.998C62.8632 186.663 73.1573 185.953 82.8667 185.284C88.7379 184.879 94.3953 184.489 99.5266 184.648C115.773 185.15 122.049 173.2 123.156 167.162C125.031 163.267 124.669 157.066 124.3 150.758C123.884 143.65 123.46 136.406 126.224 132.179C128.895 128.094 129.153 120.873 129.428 113.191C129.689 105.868 129.966 98.1264 132.362 92.2853C137.272 80.3173 155.071 16.7947 147.092 12.1916C142.381 9.47378 137.456 17.5612 131.875 26.7262C128.004 33.0833 123.817 39.9589 119.166 44.1064C115.956 46.9695 112.746 50.5194 109.689 54.4025C105.763 70.7649 100.871 86.8472 98.6398 92.2853C96.2434 98.1264 95.9669 105.868 95.7053 113.191C95.431 120.873 95.173 128.094 92.5023 132.179C89.7381 136.406 90.1617 143.65 90.5775 150.758C90.9464 157.066 91.3091 163.267 89.4336 167.162C88.3267 173.2 82.0511 185.15 65.8044 184.648C61.9245 184.528 57.7437 184.722 53.3972 184.998Z" fill="#2E1845"/>
</g>
<path id="shell_2" d="M33.2424 175.447C29.6623 175.345 24.6501 169.801 33.2424 148.443C43.9828 121.745 54.1097 107.936 61.4746 95.9675C68.8396 83.9995 96.7649 30.2969 99.5268 33.9793C102.289 37.6618 73.7495 91.9782 77.432 95.9675C81.1145 99.9569 87.2519 96.2744 91.855 84.6133C96.4581 72.9521 107.812 54.2329 119.167 44.1061C130.521 33.9793 139.113 7.58832 147.092 12.1914C155.071 16.7945 137.272 80.317 132.362 92.2851C127.452 104.253 131.442 124.2 126.225 132.178C121.008 140.157 127.145 158.876 123.156 167.162" stroke="black" stroke-width="0.672617"/>
</g>
</g>
</svg>
