<svg width="182" height="182" viewBox="0 0 182 182" fill="none" xmlns="http://www.w3.org/2000/svg">
<g id="shell-logo">
<g id="Logo">
<g id="Frame" clip-path="url(#clip0_123_427)">
<path id="Vector" d="M83.6761 91.7208C83.1116 92.1515 82.4185 92.3802 81.7082 92.3704C80.9978 92.3606 80.3114 92.1128 79.759 91.6668C79.2067 91.2207 78.8205 90.6021 78.6624 89.9106C78.5043 89.219 78.5835 88.4945 78.8873 87.8533C79.2912 87.1179 79.8671 86.4909 80.5661 86.0257C81.265 85.5604 82.0662 85.2707 82.9014 85.1813C85.2183 84.7792 87.6013 85.2829 89.5563 86.5877C91.8791 88.1011 93.5402 90.4382 94.2042 93.127C94.6183 95.0233 94.6057 96.9878 94.1673 98.8786C93.7289 100.769 92.8756 102.539 91.669 104.061C89.227 107.124 85.6694 109.096 81.7746 109.546C79.6422 109.927 77.4546 109.875 75.3429 109.391C73.2313 108.908 71.2392 108.004 69.4859 106.733C67.472 105.007 65.8841 102.84 64.8459 100.4C63.8077 97.9613 63.3471 95.3159 63.5 92.67C63.5677 88.4912 64.9608 84.4415 67.4789 81.1031C73.8521 72.9464 87.0211 71.5753 96.4225 75.8294C101.919 78.5288 106.355 82.9832 109.028 88.4861C113.142 96.1979 114.04 105.219 111.528 113.589C109.688 119.072 106.462 123.989 102.162 127.863C95.8416 133.819 87.8148 137.655 79.2042 138.832C70.3626 140.207 61.312 138.78 53.3239 134.754C46.7881 131.288 41.2211 126.249 37.1268 120.093C33.2113 114.03 30.6705 107.186 29.6821 100.039C28.6937 92.8925 29.2817 85.6166 31.4049 78.7207C33.5282 71.8249 37.1352 65.4758 41.9737 60.1179C46.8121 54.76 52.765 50.5228 59.4155 47.703C64.1489 45.6204 69.1312 44.1552 74.2394 43.3435C80.4121 42.3956 86.6936 42.3956 92.8662 43.3435C100.741 44.6663 108.264 47.5729 114.979 51.8868C127.016 59.4292 136.758 70.1162 143.148 82.7906C146.562 89.3268 149.039 96.3095 150.507 103.534V103.534C152.373 112.921 153.324 117.597 151.775 120.902C149.91 123.782 147.054 125.883 143.746 126.808C139.942 128.187 135.928 128.901 131.88 128.918C126.548 129.638 121.139 129.579 115.824 128.742C112.876 128.217 109.986 127.405 107.197 126.316" stroke="white" stroke-width="2" stroke-miterlimit="10"/>
<path id="Vector_2" d="M81.9232 93.5934C84.2149 93.5934 86.0726 91.7356 86.0726 89.444C86.0726 87.1523 84.2149 85.2946 81.9232 85.2946C79.6316 85.2946 77.7739 87.1523 77.7739 89.444C77.7739 91.7356 79.6316 93.5934 81.9232 93.5934Z" fill="white"/>
<path id="Vector_3" d="M83.0422 90.1386C83.0422 90.1386 90.8944 87.2909 94.5563 96.7484" stroke="white" stroke-width="0.75" stroke-miterlimit="10"/>
<path id="Vector_4" d="M83.4296 92.0724C83.4296 92.0724 92.162 91.0177 92.0916 103.604" stroke="white" stroke-width="0.75" stroke-miterlimit="10"/>
<path id="Vector_5" d="M79.2394 92.0723C79.2394 92.0723 88.5704 89.1542 86.5634 107.929" stroke="white" stroke-width="0.75" stroke-miterlimit="10"/>
<path id="Vector_6" d="M79.2747 91.4747C79.2747 91.4747 88.7465 95.3421 74.2394 109.054" stroke="white" stroke-width="0.75" stroke-miterlimit="10"/>
<path id="Vector_7" d="M78.7113 89.6816C78.7113 89.6816 84.0282 97.9086 65.3662 100.932" stroke="white" stroke-width="0.75" stroke-miterlimit="10"/>
<path id="Vector_8" d="M79.1338 87.6776C79.1338 87.6776 76.4578 96.6781 63.3592 89.2949" stroke="white" stroke-width="0.75" stroke-miterlimit="10"/>
<path id="Vector_9" d="M83.007 85.8141C83.007 85.8141 76.4578 90.7715 71.9507 76.7083" stroke="white" stroke-width="0.75" stroke-miterlimit="10"/>
<path id="Vector_10" d="M83.993 88.5565C83.993 88.5565 76.9507 82.2633 89.3803 73.6848" stroke="white" stroke-width="0.75" stroke-miterlimit="10"/>
<path id="Vector_11" d="M90.8944 87.1501C90.8944 87.1501 85.2958 83.9158 100.648 78.7475" stroke="white" stroke-width="0.75" stroke-miterlimit="10"/>
<path id="Vector_12" d="M94.169 92.4942C94.169 92.4942 88.7817 87.5019 108.711 87.9941" stroke="white" stroke-width="0.75" stroke-miterlimit="10"/>
<path id="Vector_13" d="M94.4859 98.6468C94.4859 98.6468 90.9648 90.4549 112.761 100.58" stroke="white" stroke-miterlimit="10"/>
<path id="Vector_14" d="M93.6409 100.58C97.7528 101.301 101.546 103.26 104.51 106.195C107.475 109.13 109.469 112.9 110.225 116.999" stroke="white" stroke-miterlimit="10"/>
<path id="Vector_15" d="M90.4718 105.397C94.8273 107.422 98.2775 110.985 100.157 115.4C102.036 119.815 102.211 124.769 100.648 129.305" stroke="white" stroke-miterlimit="10"/>
<path id="Vector_16" d="M83.5352 109.44C87.147 113.127 89.3449 117.966 89.7441 123.108C90.1432 128.25 88.7181 133.368 85.7183 137.567" stroke="white" stroke-miterlimit="10"/>
<path id="Vector_17" d="M73.1479 108.667C73.1479 108.667 85.5775 121.113 74.5916 139.36" stroke="white" stroke-miterlimit="10"/>
<path id="Vector_18" d="M66.493 103.78C66.493 103.78 74.3099 120.023 57.3028 136.406" stroke="white" stroke-miterlimit="10"/>
<path id="Vector_19" d="M64.8071 99.8174C64.8071 99.8174 64.8071 118.244 41.9855 125.751" stroke="white" stroke-miterlimit="10"/>
<path id="Vector_20" d="M63.7697 89.9627C61.6323 96.5807 57.1869 102.181 51.2669 105.715C45.3469 109.249 38.3586 110.472 31.612 109.157" stroke="white" stroke-miterlimit="10"/>
<path id="Vector_21" d="M66.2465 83.5641C66.2465 83.5641 47.6549 101.952 30.2958 84.865" stroke="white" stroke-miterlimit="10"/>
<path id="Vector_22" d="M71.9507 76.7083C71.9507 76.7083 48.1831 83.4234 41.0704 61.0278" stroke="white" stroke-miterlimit="10"/>
<path id="Vector_23" d="M84.4507 73.6848C84.4507 73.6848 59.169 67.7431 65.1549 45.5584" stroke="white" stroke-miterlimit="10"/>
<path id="Vector_24" d="M94.838 75.2667C94.838 75.2667 75.2606 58.4965 90.6127 42.8512" stroke="white" stroke-miterlimit="10"/>
<path id="Vector_25" d="M100.437 78.0091C100.437 78.0091 91.1056 54.2072 111 49.2148" stroke="white" stroke-miterlimit="10"/>
</g>
</g>
</g>
<defs>
<clipPath id="clip0_123_427">
<rect width="125" height="98.5477" fill="white" transform="translate(28.5 41.7261)"/>
</clipPath>
</defs>
</svg>
