<svg width="192" height="199" viewBox="0 0 192 199" fill="none" xmlns="http://www.w3.org/2000/svg">
<g id="shell2">
<g id="pink-shell-option">
<path id="Vector 59" d="M41.612 148.05C33.202 168.955 38.1078 174.382 41.612 174.482C58.6699 190.669 86.6126 182.872 106.49 183.487C122.392 183.978 128.534 172.282 129.618 166.372C133.522 158.262 127.515 139.94 132.621 132.131C137.728 124.321 133.823 104.798 138.629 93.0839C143.434 81.3699 160.855 19.1951 153.046 14.6897C145.237 10.1843 136.826 36.0154 125.713 45.9273C114.6 55.8392 103.486 74.1612 98.9809 85.5749C94.4755 96.9886 88.4683 100.593 84.864 96.6883C81.2596 92.7836 109.193 39.6197 106.49 36.0154C103.787 32.411 76.4538 84.9742 69.2452 96.6883C62.0365 108.402 52.1244 121.919 41.612 148.05Z" fill="#C26B7A"/>
<path id="Subtract" fill-rule="evenodd" clip-rule="evenodd" d="M61.3393 183.83C70.6046 185.459 80.6803 184.764 90.1837 184.109C95.9303 183.713 101.468 183.331 106.49 183.487C122.392 183.978 128.534 172.282 129.618 166.372C131.454 162.559 131.099 156.49 130.738 150.316C130.331 143.359 129.916 136.269 132.621 132.131C135.236 128.133 135.488 121.065 135.757 113.546C136.013 106.379 136.283 98.8012 138.629 93.084C143.434 81.3699 160.855 19.1952 153.046 14.6897C148.435 12.0295 143.615 19.9454 138.152 28.9159C134.363 35.1381 130.265 41.8678 125.713 45.9273C122.571 48.7297 119.429 52.2043 116.436 56.005C112.594 72.0202 107.806 87.7613 105.622 93.084C103.277 98.8012 103.006 106.379 102.75 113.546C102.481 121.065 102.229 128.133 99.6148 132.131C96.9092 136.269 97.3239 143.359 97.7309 150.316C98.0919 156.49 98.4469 162.559 96.6112 166.372C95.5278 172.282 89.3853 183.978 73.4834 183.487C69.6857 183.369 65.5937 183.559 61.3393 183.83Z" fill="#A6416E"/>
<path id="shell" d="M41.6121 174.482C38.108 174.382 33.2021 168.955 41.6121 148.05C52.1246 121.918 62.0366 108.402 69.2453 96.6881C76.454 84.974 103.787 32.4108 106.49 36.0152C109.193 39.6195 81.2597 92.7834 84.8641 96.6881C88.4684 100.593 94.4756 96.9885 98.981 85.5747C103.486 74.161 114.6 55.839 125.713 45.9271C136.827 36.0152 145.237 10.1841 153.046 14.6895C160.855 19.1949 143.434 81.3697 138.629 93.0838C133.823 104.798 137.728 124.321 132.621 132.131C127.515 139.94 133.523 158.262 129.618 166.372" stroke="black" stroke-width="0.658346"/>
</g>
</g>
</svg>
