<svg width="193" height="199" viewBox="0 0 193 199" fill="none" xmlns="http://www.w3.org/2000/svg">
<g id="shell1">
<g id="pink-purple-shell-option">
<g id="shell">
<path id="Vector 59" d="M37.315 146.529C29.1685 166.779 33.9206 172.036 37.315 172.133C53.8386 187.813 80.9059 180.26 100.161 180.856C115.564 181.332 121.514 170.002 122.564 164.277C126.346 156.422 120.527 138.673 125.473 131.109C130.42 123.544 126.637 104.632 131.293 93.2849C135.948 81.9378 152.823 21.7106 145.258 17.3463C137.694 12.9821 129.547 38.004 118.782 47.6054C108.016 57.2068 97.2511 74.9549 92.8868 86.0111C88.5226 97.0673 82.7035 100.559 79.2121 96.7763C75.7207 92.9939 102.779 41.4954 100.161 38.004C97.5421 34.5125 71.0654 85.4292 64.0826 96.7763C57.0997 108.123 47.4981 121.216 37.315 146.529Z" fill="#A6416E"/>
<path id="Subtract" fill-rule="evenodd" clip-rule="evenodd" d="M56.4244 181.188C60.5454 180.926 64.5093 180.742 68.1881 180.856C83.5918 181.332 89.5418 170.002 90.5914 164.277C92.3696 160.584 92.0257 154.705 91.6759 148.725C91.2817 141.985 90.88 135.117 93.5009 131.109C96.0331 127.236 96.2776 120.389 96.5377 113.106C96.7857 106.163 97.0479 98.823 99.32 93.285C101.435 88.129 106.073 72.881 109.796 57.3675C112.694 53.6858 115.738 50.32 118.782 47.6054C123.191 43.6731 127.16 37.1543 130.831 31.1269C136.122 22.4374 140.792 14.7695 145.258 17.3464C152.823 21.7107 135.948 81.9378 131.293 93.285C129.021 98.823 128.758 106.163 128.51 113.106C128.25 120.389 128.006 127.236 125.474 131.109C122.853 135.117 123.254 141.985 123.649 148.725C123.998 154.705 124.342 160.584 122.564 164.277C121.515 170.002 115.565 181.332 100.161 180.856C95.2957 180.705 89.9318 181.075 84.3652 181.459C75.1594 182.094 65.3994 182.766 56.4244 181.188Z" fill="#6C3F69"/>
</g>
<path id="shell_2" d="M37.3151 172.133C33.9207 172.036 29.1686 166.779 37.3151 146.529C47.4983 121.216 57.0999 108.123 64.0827 96.7762C71.0656 85.429 97.5422 34.5124 100.161 38.0038C102.779 41.4952 75.7208 92.9938 79.2122 96.7762C82.7037 100.559 88.5227 97.0671 92.887 86.0109C97.2513 74.9547 108.017 57.2067 118.782 47.6052C129.547 38.0038 137.694 12.9819 145.258 17.3462C152.823 21.7105 135.948 81.9376 131.293 93.2847C126.637 104.632 130.42 123.544 125.474 131.109C120.527 138.673 126.346 156.421 122.564 164.277" stroke="black" stroke-width="0.637723"/>
</g>
</g>
</svg>
