<svg width="375" height="28" viewBox="0 0 375 28" fill="none" xmlns="http://www.w3.org/2000/svg">
<g id="tanWaveGroup">
<path d="M94.3042 14.7764V27.1066H109.786L0 27.1066V14.7631C2.45288 15.2379 8.94905 14.2409 15.3107 6.455C21.6724 -1.33091 27.3773 0.0458699 29.4345 1.7075C30.2258 2.18225 32.1881 3.9863 33.7073 7.4045C32.4808 6.57369 29.6482 5.5055 28.129 7.87925C26.6098 10.253 27.496 13.0619 28.129 14.1697C29.1576 15.6335 32.2356 18.1813 36.3184 16.6621C40.4013 15.1429 42.688 12.152 43.321 10.8464C44.7848 8.51225 48.1872 3.48781 50.0862 2.06356C51.9852 0.639307 54.5963 0.124994 55.6645 0.0458692C58.3152 -0.231069 63.8302 0.61557 64.6847 6.21762C63.1022 5.07031 59.5812 3.58276 58.1569 6.81106C56.7327 10.0394 59.0669 13.0619 60.0559 14.1697C61.8758 15.5544 65.9191 17.2318 70.3818 12.8641C72.0829 11.4399 76.2212 7.66561 79.1646 3.96256C82.1081 0.259507 87.4332 0.0458697 89.7278 0.401933C92.062 0.52062 96.6829 1.96861 96.493 6.81106C94.7918 6.09894 91.3182 5.74288 91.0334 10.0156C90.8568 12.6645 92.4957 14.0817 94.3042 14.7764Z" fill="#F9D5AE"/>
<path d="M281.859 14.7764C280.05 14.0817 278.411 12.6645 278.588 10.0156C278.873 5.74288 282.346 6.09894 284.047 6.81106C284.237 1.96861 279.616 0.52062 277.282 0.401933C274.988 0.0458697 269.663 0.259507 266.719 3.96256C263.776 7.66561 259.637 11.4399 257.936 12.8641C253.474 17.2318 249.43 15.5544 247.61 14.1697C246.621 13.0619 244.287 10.0394 245.711 6.81106C247.136 3.58276 250.657 5.07031 252.239 6.21762C251.385 0.61557 245.87 -0.231068 243.219 0.0458692C242.151 0.124994 239.54 0.639307 237.641 2.06356C235.742 3.48781 232.339 8.51225 230.875 10.8464C230.242 12.152 227.956 15.1429 223.873 16.6621C219.79 18.1813 216.712 15.6335 215.683 14.1697C215.05 13.0619 214.164 10.253 215.683 7.87925C217.203 5.5055 220.035 6.57369 221.262 7.4045C219.743 3.9863 217.78 2.18225 216.989 1.7075C214.932 0.0458699 209.227 -1.33091 202.865 6.455C196.503 14.2409 190.007 15.2379 187.554 14.7631V27.1066H281.859V14.7764Z" fill="#F9D5AE"/>
<path d="M188.462 14.7764C186.653 14.0817 185.014 12.6645 185.191 10.0156C185.476 5.74288 188.949 6.09894 190.65 6.81106C190.84 1.96861 186.219 0.52062 183.885 0.401933C181.591 0.0458697 176.266 0.259507 173.322 3.96256C170.379 7.66561 166.24 11.4399 164.539 12.8641C160.077 17.2318 156.033 15.5544 154.213 14.1697C153.224 13.0619 150.89 10.0394 152.314 6.81106C153.739 3.58276 157.26 5.07031 158.842 6.21762C157.988 0.61557 152.473 -0.231069 149.822 0.0458692C148.754 0.124994 146.143 0.639307 144.244 2.06356C142.345 3.48781 138.942 8.51225 137.478 10.8464C136.845 12.152 134.559 15.1429 130.476 16.6621C126.393 18.1813 123.315 15.6335 122.286 14.1697C121.653 13.0619 120.767 10.253 122.286 7.87925C123.806 5.5055 126.638 6.57369 127.865 7.4045C126.346 3.9863 124.383 2.18225 123.592 1.7075C121.535 0.0458699 115.83 -1.33091 109.468 6.455C103.107 14.2409 96.6103 15.2379 94.1575 14.7631V27.1066H188.462V14.7764Z" fill="#F9D5AE"/>
<path d="M376.016 14.7764C374.208 14.0817 372.569 12.6645 372.745 10.0156C373.03 5.74288 376.504 6.09894 378.205 6.81106C378.395 1.96861 373.774 0.52062 371.44 0.401933C369.145 0.0458697 363.82 0.259507 360.877 3.96256C357.933 7.66561 353.795 11.4399 352.094 12.8641C347.631 17.2318 343.588 15.5544 341.768 14.1697C340.779 13.0619 338.445 10.0394 339.869 6.81106C341.293 3.58276 344.814 5.07031 346.397 6.21762C345.542 0.61557 340.027 -0.231069 337.376 0.0458692C336.308 0.124994 333.697 0.639307 331.798 2.06356C329.899 3.48781 326.497 8.51225 325.033 10.8464C324.4 12.152 322.113 15.1429 318.03 16.6621C313.947 18.1813 310.87 15.6335 309.841 14.1697C309.208 13.0619 308.322 10.253 309.841 7.87925C311.36 5.5055 314.193 6.57369 315.419 7.4045C313.9 3.9863 311.938 2.18225 311.146 1.7075C309.089 0.0458699 303.384 -1.33091 297.023 6.455C290.661 14.2409 284.165 15.2379 281.712 14.7631V27.1066H376.016V14.7764Z" fill="#F9D5AE"/>
</g>
</svg>
